<svg version="1.1" xmlns="http://www.w3.org/2000/svg" xmlns:xlink="http://www.w3.org/1999/xlink" width="800" height="800"><defs/><g transform="scale(2,2)"><g id="background-482e6cf9"><rect fill="white" stroke="none" x="0" y="0" width="400" height="400" class="dcg-svg-background"/></g><g id="graphpaper-482e6cf9"><g id="grid-482e6cf9"><g><path fill="none" stroke="rgb(0,0,0)" class="dcg-svg-minor-gridline" paint-order="fill stroke markers" d=" M 9.5 0 L 9.5 400" stroke-opacity="0.2" stroke-miterlimit="10" stroke-dasharray=""/><path fill="none" stroke="rgb(0,0,0)" class="dcg-svg-minor-gridline" paint-order="fill stroke markers" d=" M 43.5 0 L 43.5 400" stroke-opacity="0.2" stroke-miterlimit="10" stroke-dasharray=""/><path fill="none" stroke="rgb(0,0,0)" class="dcg-svg-minor-gridline" paint-order="fill stroke markers" d=" M 61.5 0 L 61.5 400" stroke-opacity="0.2" stroke-miterlimit="10" stroke-dasharray=""/><path fill="none" stroke="rgb(0,0,0)" class="dcg-svg-minor-gridline" paint-order="fill stroke markers" d=" M 78.5 0 L 78.5 400" stroke-opacity="0.2" stroke-miterlimit="10" stroke-dasharray=""/><path fill="none" stroke="rgb(0,0,0)" class="dcg-svg-minor-gridline" paint-order="fill stroke markers" d=" M 96.5 0 L 96.5 400" stroke-opacity="0.2" stroke-miterlimit="10" stroke-dasharray=""/><path fill="none" stroke="rgb(0,0,0)" class="dcg-svg-minor-gridline" paint-order="fill stroke markers" d=" M 113.5 0 L 113.5 400" stroke-opacity="0.2" stroke-miterlimit="10" stroke-dasharray=""/><path fill="none" stroke="rgb(0,0,0)" class="dcg-svg-minor-gridline" paint-order="fill stroke markers" d=" M 130.5 0 L 130.5 400" stroke-opacity="0.2" stroke-miterlimit="10" stroke-dasharray=""/><path fill="none" stroke="rgb(0,0,0)" class="dcg-svg-minor-gridline" paint-order="fill stroke markers" d=" M 148.5 0 L 148.5 400" stroke-opacity="0.2" stroke-miterlimit="10" stroke-dasharray=""/><path fill="none" stroke="rgb(0,0,0)" class="dcg-svg-minor-gridline" paint-order="fill stroke markers" d=" M 165.5 0 L 165.5 400" stroke-opacity="0.2" stroke-miterlimit="10" stroke-dasharray=""/><path fill="none" stroke="rgb(0,0,0)" class="dcg-svg-minor-gridline" paint-order="fill stroke markers" d=" M 182.5 0 L 182.5 400" stroke-opacity="0.2" stroke-miterlimit="10" stroke-dasharray=""/><path fill="none" stroke="rgb(0,0,0)" class="dcg-svg-minor-gridline" paint-order="fill stroke markers" d=" M 200.5 0 L 200.5 400" stroke-opacity="0.2" stroke-miterlimit="10" stroke-dasharray=""/><path fill="none" stroke="rgb(0,0,0)" class="dcg-svg-minor-gridline" paint-order="fill stroke markers" d=" M 217.5 0 L 217.5 400" stroke-opacity="0.2" stroke-miterlimit="10" stroke-dasharray=""/><path fill="none" stroke="rgb(0,0,0)" class="dcg-svg-minor-gridline" paint-order="fill stroke markers" d=" M 234.5 0 L 234.5 400" stroke-opacity="0.2" stroke-miterlimit="10" stroke-dasharray=""/><path fill="none" stroke="rgb(0,0,0)" class="dcg-svg-minor-gridline" paint-order="fill stroke markers" d=" M 252.5 0 L 252.5 400" stroke-opacity="0.2" stroke-miterlimit="10" stroke-dasharray=""/><path fill="none" stroke="rgb(0,0,0)" class="dcg-svg-minor-gridline" paint-order="fill stroke markers" d=" M 269.5 0 L 269.5 400" stroke-opacity="0.2" stroke-miterlimit="10" stroke-dasharray=""/><path fill="none" stroke="rgb(0,0,0)" class="dcg-svg-minor-gridline" paint-order="fill stroke markers" d=" M 287.5 0 L 287.5 400" stroke-opacity="0.2" stroke-miterlimit="10" stroke-dasharray=""/><path fill="none" stroke="rgb(0,0,0)" class="dcg-svg-minor-gridline" paint-order="fill stroke markers" d=" M 304.5 0 L 304.5 400" stroke-opacity="0.2" stroke-miterlimit="10" stroke-dasharray=""/><path fill="none" stroke="rgb(0,0,0)" class="dcg-svg-minor-gridline" paint-order="fill stroke markers" d=" M 321.5 0 L 321.5 400" stroke-opacity="0.2" stroke-miterlimit="10" stroke-dasharray=""/><path fill="none" stroke="rgb(0,0,0)" class="dcg-svg-minor-gridline" paint-order="fill stroke markers" d=" M 339.5 0 L 339.5 400" stroke-opacity="0.2" stroke-miterlimit="10" stroke-dasharray=""/><path fill="none" stroke="rgb(0,0,0)" class="dcg-svg-minor-gridline" paint-order="fill stroke markers" d=" M 356.5 0 L 356.5 400" stroke-opacity="0.2" stroke-miterlimit="10" stroke-dasharray=""/><path fill="none" stroke="rgb(0,0,0)" class="dcg-svg-minor-gridline" paint-order="fill stroke markers" d=" M 373.5 0 L 373.5 400" stroke-opacity="0.2" stroke-miterlimit="10" stroke-dasharray=""/><path fill="none" stroke="rgb(0,0,0)" class="dcg-svg-minor-gridline" paint-order="fill stroke markers" d=" M 391.5 0 L 391.5 400" stroke-opacity="0.2" stroke-miterlimit="10" stroke-dasharray=""/><path fill="none" stroke="rgb(0,0,0)" class="dcg-svg-minor-gridline" paint-order="fill stroke markers" d=" M 0 386.5 L 400 386.5" stroke-opacity="0.2" stroke-miterlimit="10" stroke-dasharray=""/><path fill="none" stroke="rgb(0,0,0)" class="dcg-svg-minor-gridline" paint-order="fill stroke markers" d=" M 0 358.5 L 400 358.5" stroke-opacity="0.2" stroke-miterlimit="10" stroke-dasharray=""/><path fill="none" stroke="rgb(0,0,0)" class="dcg-svg-minor-gridline" paint-order="fill stroke markers" d=" M 0 330.5 L 400 330.5" stroke-opacity="0.2" stroke-miterlimit="10" stroke-dasharray=""/><path fill="none" stroke="rgb(0,0,0)" class="dcg-svg-minor-gridline" paint-order="fill stroke markers" d=" M 0 302.5 L 400 302.5" stroke-opacity="0.2" stroke-miterlimit="10" stroke-dasharray=""/><path fill="none" stroke="rgb(0,0,0)" class="dcg-svg-minor-gridline" paint-order="fill stroke markers" d=" M 0 274.5 L 400 274.5" stroke-opacity="0.2" stroke-miterlimit="10" stroke-dasharray=""/><path fill="none" stroke="rgb(0,0,0)" class="dcg-svg-minor-gridline" paint-order="fill stroke markers" d=" M 0 246.5 L 400 246.5" stroke-opacity="0.2" stroke-miterlimit="10" stroke-dasharray=""/><path fill="none" stroke="rgb(0,0,0)" class="dcg-svg-minor-gridline" paint-order="fill stroke markers" d=" M 0 190.5 L 400 190.5" stroke-opacity="0.2" stroke-miterlimit="10" stroke-dasharray=""/><path fill="none" stroke="rgb(0,0,0)" class="dcg-svg-minor-gridline" paint-order="fill stroke markers" d=" M 0 161.5 L 400 161.5" stroke-opacity="0.2" stroke-miterlimit="10" stroke-dasharray=""/><path fill="none" stroke="rgb(0,0,0)" class="dcg-svg-minor-gridline" paint-order="fill stroke markers" d=" M 0 133.5 L 400 133.5" stroke-opacity="0.2" stroke-miterlimit="10" stroke-dasharray=""/><path fill="none" stroke="rgb(0,0,0)" class="dcg-svg-minor-gridline" paint-order="fill stroke markers" d=" M 0 105.5 L 400 105.5" stroke-opacity="0.2" stroke-miterlimit="10" stroke-dasharray=""/><path fill="none" stroke="rgb(0,0,0)" class="dcg-svg-minor-gridline" paint-order="fill stroke markers" d=" M 0 77.5 L 400 77.5" stroke-opacity="0.2" stroke-miterlimit="10" stroke-dasharray=""/><path fill="none" stroke="rgb(0,0,0)" class="dcg-svg-minor-gridline" paint-order="fill stroke markers" d=" M 0 49.5 L 400 49.5" stroke-opacity="0.2" stroke-miterlimit="10" stroke-dasharray=""/><path fill="none" stroke="rgb(0,0,0)" class="dcg-svg-minor-gridline" paint-order="fill stroke markers" d=" M 0 21.5 L 400 21.5" stroke-opacity="0.2" stroke-miterlimit="10" stroke-dasharray=""/><path fill="none" stroke="rgb(0,0,0)" class="dcg-svg-major-gridline" paint-order="fill stroke markers" d=" M 113.5 0 L 113.5 400" stroke-opacity="0.2500000000000001" stroke-miterlimit="10" stroke-dasharray=""/><path fill="none" stroke="rgb(0,0,0)" class="dcg-svg-major-gridline" paint-order="fill stroke markers" d=" M 200.5 0 L 200.5 400" stroke-opacity="0.2500000000000001" stroke-miterlimit="10" stroke-dasharray=""/><path fill="none" stroke="rgb(0,0,0)" class="dcg-svg-major-gridline" paint-order="fill stroke markers" d=" M 287.5 0 L 287.5 400" stroke-opacity="0.2500000000000001" stroke-miterlimit="10" stroke-dasharray=""/><path fill="none" stroke="rgb(0,0,0)" class="dcg-svg-major-gridline" paint-order="fill stroke markers" d=" M 373.5 0 L 373.5 400" stroke-opacity="0.2500000000000001" stroke-miterlimit="10" stroke-dasharray=""/><path fill="none" stroke="rgb(0,0,0)" class="dcg-svg-major-gridline" paint-order="fill stroke markers" d=" M 0 330.5 L 400 330.5" stroke-opacity="0.2500000000000001" stroke-miterlimit="10" stroke-dasharray=""/><path fill="none" stroke="rgb(0,0,0)" class="dcg-svg-major-gridline" paint-order="fill stroke markers" d=" M 0 105.5 L 400 105.5" stroke-opacity="0.2500000000000001" stroke-miterlimit="10" stroke-dasharray=""/></g></g><g id="axis-482e6cf9"><g id="yaxis-482e6cf9"><title>Y axis</title><g><path fill="none" stroke="rgb(0,0,0)" class="dcg-svg-axis-line" paint-order="fill stroke markers" d=" M 27 0 L 27 400" stroke-opacity="0.9" stroke-miterlimit="10" stroke-width="1.5" stroke-dasharray=""/></g></g><g id="xaxis-482e6cf9"><title>X axis</title><g><path fill="none" stroke="rgb(0,0,0)" class="dcg-svg-axis-line" paint-order="fill stroke markers" d=" M 0 218 L 400 218" stroke-opacity="0.9" stroke-miterlimit="10" stroke-width="1.5" stroke-dasharray=""/></g></g><g><g class="dcg-svg-axis-value"><text fill="none" stroke="#ffffff" font-family="Arial" font-size="14px" font-style="normal" font-weight="normal" text-decoration="normal" x="17.731761853040325" y="233.94918808625502" text-anchor="middle" stroke-miterlimit="2" stroke-width="3" stroke-dasharray="">0</text><text fill="#000000" stroke="none" font-family="Arial" font-size="14px" font-style="normal" font-weight="normal" text-decoration="normal" x="17.731761853040325" y="233.94918808625502" text-anchor="middle">0</text></g><g class="dcg-svg-axis-value"><text fill="none" stroke="#ffffff" font-family="Arial" font-size="14px" font-style="normal" font-weight="normal" text-decoration="normal" x="113.44285690235672" y="233.94918808625502" text-anchor="middle" stroke-miterlimit="2" stroke-width="3" stroke-dasharray="">5</text><text fill="#000000" stroke="none" font-family="Arial" font-size="14px" font-style="normal" font-weight="normal" text-decoration="normal" x="113.44285690235672" y="233.94918808625502" text-anchor="middle">5</text></g><g class="dcg-svg-axis-value"><text fill="none" stroke="#ffffff" font-family="Arial" font-size="14px" font-style="normal" font-weight="normal" text-decoration="normal" x="200.26088554542312" y="233.94918808625502" text-anchor="middle" stroke-miterlimit="2" stroke-width="3" stroke-dasharray="">10</text><text fill="#000000" stroke="none" font-family="Arial" font-size="14px" font-style="normal" font-weight="normal" text-decoration="normal" x="200.26088554542312" y="233.94918808625502" text-anchor="middle">10</text></g><g class="dcg-svg-axis-value"><text fill="none" stroke="#ffffff" font-family="Arial" font-size="14px" font-style="normal" font-weight="normal" text-decoration="normal" x="287.07891418848953" y="233.94918808625502" text-anchor="middle" stroke-miterlimit="2" stroke-width="3" stroke-dasharray="">15</text><text fill="#000000" stroke="none" font-family="Arial" font-size="14px" font-style="normal" font-weight="normal" text-decoration="normal" x="287.07891418848953" y="233.94918808625502" text-anchor="middle">15</text></g><g class="dcg-svg-axis-value"><text fill="none" stroke="#ffffff" font-family="Arial" font-size="14px" font-style="normal" font-weight="normal" text-decoration="normal" x="373.8969428315559" y="233.94918808625502" text-anchor="middle" stroke-miterlimit="2" stroke-width="3" stroke-dasharray="">20</text><text fill="#000000" stroke="none" font-family="Arial" font-size="14px" font-style="normal" font-weight="normal" text-decoration="normal" x="373.8969428315559" y="233.94918808625502" text-anchor="middle">20</text></g><g class="dcg-svg-axis-value"><text fill="none" stroke="#ffffff" font-family="Arial" font-size="14px" font-style="normal" font-weight="normal" text-decoration="normal" x="15.400707165540325" y="334.346246343173" text-anchor="middle" stroke-miterlimit="2" stroke-width="3" stroke-dasharray="">-2</text><text fill="#000000" stroke="none" font-family="Arial" font-size="14px" font-style="normal" font-weight="normal" text-decoration="normal" x="15.400707165540325" y="334.346246343173" text-anchor="middle">-2</text></g><g class="dcg-svg-axis-value"><text fill="none" stroke="#ffffff" font-family="Arial" font-size="14px" font-style="normal" font-weight="normal" text-decoration="normal" x="17.731761853040325" y="109.55212982933706" text-anchor="middle" stroke-miterlimit="2" stroke-width="3" stroke-dasharray="">2</text><text fill="#000000" stroke="none" font-family="Arial" font-size="14px" font-style="normal" font-weight="normal" text-decoration="normal" x="17.731761853040325" y="109.55212982933706" text-anchor="middle">2</text></g></g></g></g><g id="expressions-482e6cf9"><g id="sketch-482e6cf9"><title>Expression 2</title><path fill="#c74440" stroke="none" paint-order="stroke fill markers" d="" fill-opacity="0.4"/><g><path fill="none" stroke="#c74440" class="dcg-svg-curve" paint-order="fill stroke markers" d=" M 2.842170943040401e-14 310.80382481402853 L 2.842170943040401e-14 310.80382481402853 L 0.9765625000000284 310.4622727352753 L 1.9531250000000284 309.8287718717355 L 3.0273437500000284 308.7971384551691 L 4.296875000000028 307.1311255543106 L 5.664062500000028 304.80549244333855 L 7.031250000000028 301.94283719027146 L 8.496093750000025 298.29999529481796 L 10.058593750000028 293.78656624421717 L 11.816406250000027 287.97927602516063 L 13.671875000000027 281.0748368171931 L 15.722656250000028 272.61180141092893 L 18.06640625000003 262.0178018155959 L 20.80078125000003 248.66366281144005 L 24.41406250000003 229.91555844301513 L 33.30078125000003 183.36122457576016 L 36.13281250000003 169.86502291325297 L 38.47656250000003 159.65021545423994 L 40.52734375000002 151.5792391299929 L 42.38281250000002 145.07324526019417 L 44.14062500000003 139.67749695517074 L 45.70312500000003 135.55424826522534 L 47.16796875000003 132.29510773217385 L 48.53515625000003 129.8037499738819 L 49.90234375000002 127.85978206189658 L 51.17187500000002 126.55538947459377 L 52.24609375000003 125.83370142272356 L 53.22265625000003 125.4840586835862 L 54.19921875000003 125.42742741018019 L 55.07812500000003 125.6271512456349 L 56.05468750000003 126.12696880440348 L 57.12890625000003 127.01275980062955 L 58.30078125000002 128.37658696486596 L 59.66796875000003 130.48375209156387 L 61.03515625000003 133.13409337824646 L 62.50000000000003 136.55777888689482 L 64.06250000000003 140.8486468263141 L 65.72265625000003 146.09213857598988 L 67.57812500000003 152.72890037560643 L 69.62890625000003 160.9290944251449 L 71.87500000000003 170.82042321116575 L 74.51171875000001 183.42790431740536 L 77.83203125000003 200.4028509404362 L 89.16015625000003 259.30116496340656 L 91.69921875000003 270.9690729737609 L 93.94531250000003 280.3581909125603 L 95.89843750000003 287.6826906703357 L 97.75390625000001 293.8281391569709 L 99.41406250000003 298.5966789077577 L 100.9765625 302.41405909394473 L 102.44140625000003 305.37400894509204 L 103.80859375000001 307.5771790594698 L 105.17578125000001 309.226152058794 L 106.34765625000001 310.1906220314936 L 107.32421875000001 310.67431453478264 L 108.30078125000001 310.86538770932515 L 109.17968750000001 310.78664548092536 L 110.15625000000001 310.4208436585667 L 111.13281250000003 309.76322406340694 L 112.20703125000003 308.7053023722377 L 113.47656250000001 307.008682312518 L 114.84375000000001 304.65082394570334 L 116.21093750000001 301.7569018522397 L 117.67578125000001 298.08184329735536 L 119.23828125000001 293.5357655260326 L 120.99609375000003 287.6941839545169 L 122.85156250000001 280.7567220099694 L 124.90234375000003 272.26142409186355 L 127.24609375000001 261.6365540446029 L 129.98046875 248.2551979721658 L 133.69140625000003 228.9689336288221 L 142.1875 184.41345621386557 L 145.01953125 170.83536774726844 L 147.4609375 160.12544803836943 L 149.609375 151.64144060667172 L 151.46484375 145.12825854855032 L 153.22265625 139.7251200456532 L 154.78515625000003 135.59489043317345 L 156.25000000000003 132.32890548366916 L 157.6171875 129.830941707541 L 158.98437500000003 127.88019928201444 L 160.25390625000003 126.56940188265327 L 161.328125 125.8422345101916 L 162.30468750000003 125.48758168449683 L 163.28125 125.42592918367825 L 164.16015625 125.6211375128791 L 165.13671875000003 126.11595641115544 L 166.21093750000003 126.99628970894285 L 167.38281250000003 128.3542356075034 L 168.75000000000003 130.4546697397995 L 170.1171875 133.09846024314828 L 171.58203125 136.5153731253433 L 173.14453125000003 140.79935053054962 L 174.80468750000003 146.03595939893745 L 176.66015625 152.6656386008312 L 178.61328125000003 160.4496465943099 L 180.85937500000003 170.29616291344274 L 183.49609375 182.8622630146225 L 186.71875000000003 199.2927804450685 L 198.53515625000003 260.61785666152065 L 201.07421875 272.17476881544815 L 203.32031250000003 281.44415665134494 L 205.2734375 288.64971442854437 L 207.03125 294.37512784228096 L 208.69140625 299.0665830535386 L 210.25390625000003 302.80747888576474 L 211.71875000000003 305.69282118350134 L 213.0859375 307.8243007486936 L 214.453125 309.40005188995144 L 215.62500000000003 310.3008852062716 L 216.6015625 310.7311512763473 L 217.54764494823428 310.86876114821234 L 218.45703125000003 310.7416169318948 L 219.43359375000003 310.32233450703205 L 220.41015625 309.6115458267989 L 221.48437500000003 308.49569857454225 L 222.75390625000003 306.7316721332994 L 224.12109375 304.30288776911937 L 225.48828125 301.34019569202906 L 226.953125 297.59433135467384 L 228.515625 292.97656137877004 L 230.2734375 287.0597626018998 L 232.12890625 280.0499669744257 L 234.27734375000003 271.05670697341145 L 236.71875 259.8631292313562 L 239.55078125 245.862592852531 L 243.45703125 225.42485419102442 L 250.87890625 186.44891596988313 L 253.80859375000003 172.2652592932887 L 256.25 161.4247710201015 L 258.3984375 152.80455211769691 L 260.3515625 145.83171419649912 L 262.109375 140.3353006976656 L 263.76953125 135.8749451837175 L 265.234375 132.5622240199806 L 266.6015625 130.019135634119 L 267.96875 128.02210244046972 L 269.23828125 126.66752720509024 L 270.3125 125.902898064272 L 271.2890625 125.51398387879598 L 272.265625 125.41798652601695 L 273.14453125 125.58230286839066 L 274.12109375 126.04291743991662 L 275.1953125 126.885896895995 L 276.3671875 128.2035797757204 L 277.63671875 130.09295132915926 L 279.00390625 132.65346355302225 L 280.46875 135.98422293971686 L 282.03125 140.1804820040458 L 283.69140625 145.3293929451841 L 285.44921875 151.50501444551037 L 287.40234375 159.16411075194637 L 289.55078125 168.4460705377327 L 292.08984375 180.3834597944975 L 295.21484375 196.15355143126075 L 300.1953125 222.53786111962015 L 305.17578125 248.56291388059816 L 308.203125 263.29667008229063 L 310.64453125000006 274.2011520588636 L 312.79296875 282.88845108863825 L 314.74609375 289.93012060063387 L 316.50390625000006 295.49413437077476 L 318.1640625 300.02260567938174 L 319.62890625000006 303.398369265208 L 321.09375 306.1677091714648 L 322.4609375 308.18785537964186 L 323.73046875 309.5642976105482 L 324.8046875 310.34764529534357 L 325.78125 310.75368392534085 L 326.7578125 310.86685223520425 L 327.63671875 310.7179846437237 L 328.61328125 310.27447982330347 L 329.58984375000006 309.5396200793218 L 330.76171875000006 308.27653633619167 L 332.03124999999994 306.4452901266006 L 333.3984375 303.94583670177093 L 334.86328125 300.6783084318614 L 336.42578124999994 296.54650482118217 L 338.0859375 291.4621241773969 L 339.84375 285.34974777202365 L 341.79687500000006 277.75402345538436 L 343.9453125 268.5324639724721 L 346.484375 256.65267141439483 L 349.51171875 241.4364388692332 L 354.19921874999994 216.65592492673528 L 359.66796874999994 188.0081299906126 L 362.69531250000006 173.25269894491169 L 365.13671874999994 162.3248012671242 L 367.28515625 153.61290203086614 L 369.23828125 146.5459523459241 L 370.99609375 140.9570834544989 L 372.65625 136.4035458003173 L 374.12109375 133.00456645225762 L 375.5859375 130.21115325878412 L 376.953125 128.16791595014598 L 378.22265625 126.76962165503157 L 379.29687500000006 125.9675639238287 L 380.2734375 125.54440525392089 L 381.25000000000006 125.41406721459612 L 382.12890625 125.54748444030324 L 383.10546875 125.97387469858275 L 384.08203124999994 126.69172746775955 L 385.15625 127.81526803735964 L 386.42578124999994 129.5882432706706 L 387.79296875 132.026439123915 L 389.16015625 134.99825175625654 L 390.625 138.7535011030667 L 392.1875 143.38076700598302 L 393.94531249999994 149.30752006879027 L 395.8984375 156.71659024327 L 398.046875 165.7593612821347 L 400 174.67895959187194" stroke-linecap="round" stroke-linejoin="round" stroke-miterlimit="10" stroke-width="2.5" stroke-dasharray=""/></g></g></g><g id="labels-482e6cf9"/><g id="labels-482e6cf9"/></g></svg>