<svg version="1.1" xmlns="http://www.w3.org/2000/svg" xmlns:xlink="http://www.w3.org/1999/xlink" width="800" height="800"><defs/><g transform="scale(2,2)"><g id="background-bc2f44ae"><rect fill="white" stroke="none" x="0" y="0" width="400" height="400" class="dcg-svg-background"/></g><g id="graphpaper-bc2f44ae"><g id="grid-bc2f44ae"><g><path fill="none" stroke="rgb(0,0,0)" class="dcg-svg-minor-gridline" paint-order="fill stroke markers" d=" M 9.5 0 L 9.5 400" stroke-opacity="0.2" stroke-miterlimit="10" stroke-dasharray=""/><path fill="none" stroke="rgb(0,0,0)" class="dcg-svg-minor-gridline" paint-order="fill stroke markers" d=" M 43.5 0 L 43.5 400" stroke-opacity="0.2" stroke-miterlimit="10" stroke-dasharray=""/><path fill="none" stroke="rgb(0,0,0)" class="dcg-svg-minor-gridline" paint-order="fill stroke markers" d=" M 61.5 0 L 61.5 400" stroke-opacity="0.2" stroke-miterlimit="10" stroke-dasharray=""/><path fill="none" stroke="rgb(0,0,0)" class="dcg-svg-minor-gridline" paint-order="fill stroke markers" d=" M 78.5 0 L 78.5 400" stroke-opacity="0.2" stroke-miterlimit="10" stroke-dasharray=""/><path fill="none" stroke="rgb(0,0,0)" class="dcg-svg-minor-gridline" paint-order="fill stroke markers" d=" M 96.5 0 L 96.5 400" stroke-opacity="0.2" stroke-miterlimit="10" stroke-dasharray=""/><path fill="none" stroke="rgb(0,0,0)" class="dcg-svg-minor-gridline" paint-order="fill stroke markers" d=" M 113.5 0 L 113.5 400" stroke-opacity="0.2" stroke-miterlimit="10" stroke-dasharray=""/><path fill="none" stroke="rgb(0,0,0)" class="dcg-svg-minor-gridline" paint-order="fill stroke markers" d=" M 130.5 0 L 130.5 400" stroke-opacity="0.2" stroke-miterlimit="10" stroke-dasharray=""/><path fill="none" stroke="rgb(0,0,0)" class="dcg-svg-minor-gridline" paint-order="fill stroke markers" d=" M 148.5 0 L 148.5 400" stroke-opacity="0.2" stroke-miterlimit="10" stroke-dasharray=""/><path fill="none" stroke="rgb(0,0,0)" class="dcg-svg-minor-gridline" paint-order="fill stroke markers" d=" M 165.5 0 L 165.5 400" stroke-opacity="0.2" stroke-miterlimit="10" stroke-dasharray=""/><path fill="none" stroke="rgb(0,0,0)" class="dcg-svg-minor-gridline" paint-order="fill stroke markers" d=" M 182.5 0 L 182.5 400" stroke-opacity="0.2" stroke-miterlimit="10" stroke-dasharray=""/><path fill="none" stroke="rgb(0,0,0)" class="dcg-svg-minor-gridline" paint-order="fill stroke markers" d=" M 200.5 0 L 200.5 400" stroke-opacity="0.2" stroke-miterlimit="10" stroke-dasharray=""/><path fill="none" stroke="rgb(0,0,0)" class="dcg-svg-minor-gridline" paint-order="fill stroke markers" d=" M 217.5 0 L 217.5 400" stroke-opacity="0.2" stroke-miterlimit="10" stroke-dasharray=""/><path fill="none" stroke="rgb(0,0,0)" class="dcg-svg-minor-gridline" paint-order="fill stroke markers" d=" M 234.5 0 L 234.5 400" stroke-opacity="0.2" stroke-miterlimit="10" stroke-dasharray=""/><path fill="none" stroke="rgb(0,0,0)" class="dcg-svg-minor-gridline" paint-order="fill stroke markers" d=" M 252.5 0 L 252.5 400" stroke-opacity="0.2" stroke-miterlimit="10" stroke-dasharray=""/><path fill="none" stroke="rgb(0,0,0)" class="dcg-svg-minor-gridline" paint-order="fill stroke markers" d=" M 269.5 0 L 269.5 400" stroke-opacity="0.2" stroke-miterlimit="10" stroke-dasharray=""/><path fill="none" stroke="rgb(0,0,0)" class="dcg-svg-minor-gridline" paint-order="fill stroke markers" d=" M 287.5 0 L 287.5 400" stroke-opacity="0.2" stroke-miterlimit="10" stroke-dasharray=""/><path fill="none" stroke="rgb(0,0,0)" class="dcg-svg-minor-gridline" paint-order="fill stroke markers" d=" M 304.5 0 L 304.5 400" stroke-opacity="0.2" stroke-miterlimit="10" stroke-dasharray=""/><path fill="none" stroke="rgb(0,0,0)" class="dcg-svg-minor-gridline" paint-order="fill stroke markers" d=" M 321.5 0 L 321.5 400" stroke-opacity="0.2" stroke-miterlimit="10" stroke-dasharray=""/><path fill="none" stroke="rgb(0,0,0)" class="dcg-svg-minor-gridline" paint-order="fill stroke markers" d=" M 339.5 0 L 339.5 400" stroke-opacity="0.2" stroke-miterlimit="10" stroke-dasharray=""/><path fill="none" stroke="rgb(0,0,0)" class="dcg-svg-minor-gridline" paint-order="fill stroke markers" d=" M 356.5 0 L 356.5 400" stroke-opacity="0.2" stroke-miterlimit="10" stroke-dasharray=""/><path fill="none" stroke="rgb(0,0,0)" class="dcg-svg-minor-gridline" paint-order="fill stroke markers" d=" M 373.5 0 L 373.5 400" stroke-opacity="0.2" stroke-miterlimit="10" stroke-dasharray=""/><path fill="none" stroke="rgb(0,0,0)" class="dcg-svg-minor-gridline" paint-order="fill stroke markers" d=" M 391.5 0 L 391.5 400" stroke-opacity="0.2" stroke-miterlimit="10" stroke-dasharray=""/><path fill="none" stroke="rgb(0,0,0)" class="dcg-svg-minor-gridline" paint-order="fill stroke markers" d=" M 0 386.5 L 400 386.5" stroke-opacity="0.2" stroke-miterlimit="10" stroke-dasharray=""/><path fill="none" stroke="rgb(0,0,0)" class="dcg-svg-minor-gridline" paint-order="fill stroke markers" d=" M 0 358.5 L 400 358.5" stroke-opacity="0.2" stroke-miterlimit="10" stroke-dasharray=""/><path fill="none" stroke="rgb(0,0,0)" class="dcg-svg-minor-gridline" paint-order="fill stroke markers" d=" M 0 330.5 L 400 330.5" stroke-opacity="0.2" stroke-miterlimit="10" stroke-dasharray=""/><path fill="none" stroke="rgb(0,0,0)" class="dcg-svg-minor-gridline" paint-order="fill stroke markers" d=" M 0 302.5 L 400 302.5" stroke-opacity="0.2" stroke-miterlimit="10" stroke-dasharray=""/><path fill="none" stroke="rgb(0,0,0)" class="dcg-svg-minor-gridline" paint-order="fill stroke markers" d=" M 0 274.5 L 400 274.5" stroke-opacity="0.2" stroke-miterlimit="10" stroke-dasharray=""/><path fill="none" stroke="rgb(0,0,0)" class="dcg-svg-minor-gridline" paint-order="fill stroke markers" d=" M 0 246.5 L 400 246.5" stroke-opacity="0.2" stroke-miterlimit="10" stroke-dasharray=""/><path fill="none" stroke="rgb(0,0,0)" class="dcg-svg-minor-gridline" paint-order="fill stroke markers" d=" M 0 190.5 L 400 190.5" stroke-opacity="0.2" stroke-miterlimit="10" stroke-dasharray=""/><path fill="none" stroke="rgb(0,0,0)" class="dcg-svg-minor-gridline" paint-order="fill stroke markers" d=" M 0 161.5 L 400 161.5" stroke-opacity="0.2" stroke-miterlimit="10" stroke-dasharray=""/><path fill="none" stroke="rgb(0,0,0)" class="dcg-svg-minor-gridline" paint-order="fill stroke markers" d=" M 0 133.5 L 400 133.5" stroke-opacity="0.2" stroke-miterlimit="10" stroke-dasharray=""/><path fill="none" stroke="rgb(0,0,0)" class="dcg-svg-minor-gridline" paint-order="fill stroke markers" d=" M 0 105.5 L 400 105.5" stroke-opacity="0.2" stroke-miterlimit="10" stroke-dasharray=""/><path fill="none" stroke="rgb(0,0,0)" class="dcg-svg-minor-gridline" paint-order="fill stroke markers" d=" M 0 77.5 L 400 77.5" stroke-opacity="0.2" stroke-miterlimit="10" stroke-dasharray=""/><path fill="none" stroke="rgb(0,0,0)" class="dcg-svg-minor-gridline" paint-order="fill stroke markers" d=" M 0 49.5 L 400 49.5" stroke-opacity="0.2" stroke-miterlimit="10" stroke-dasharray=""/><path fill="none" stroke="rgb(0,0,0)" class="dcg-svg-minor-gridline" paint-order="fill stroke markers" d=" M 0 21.5 L 400 21.5" stroke-opacity="0.2" stroke-miterlimit="10" stroke-dasharray=""/><path fill="none" stroke="rgb(0,0,0)" class="dcg-svg-major-gridline" paint-order="fill stroke markers" d=" M 113.5 0 L 113.5 400" stroke-opacity="0.2500000000000001" stroke-miterlimit="10" stroke-dasharray=""/><path fill="none" stroke="rgb(0,0,0)" class="dcg-svg-major-gridline" paint-order="fill stroke markers" d=" M 200.5 0 L 200.5 400" stroke-opacity="0.2500000000000001" stroke-miterlimit="10" stroke-dasharray=""/><path fill="none" stroke="rgb(0,0,0)" class="dcg-svg-major-gridline" paint-order="fill stroke markers" d=" M 287.5 0 L 287.5 400" stroke-opacity="0.2500000000000001" stroke-miterlimit="10" stroke-dasharray=""/><path fill="none" stroke="rgb(0,0,0)" class="dcg-svg-major-gridline" paint-order="fill stroke markers" d=" M 373.5 0 L 373.5 400" stroke-opacity="0.2500000000000001" stroke-miterlimit="10" stroke-dasharray=""/><path fill="none" stroke="rgb(0,0,0)" class="dcg-svg-major-gridline" paint-order="fill stroke markers" d=" M 0 330.5 L 400 330.5" stroke-opacity="0.2500000000000001" stroke-miterlimit="10" stroke-dasharray=""/><path fill="none" stroke="rgb(0,0,0)" class="dcg-svg-major-gridline" paint-order="fill stroke markers" d=" M 0 105.5 L 400 105.5" stroke-opacity="0.2500000000000001" stroke-miterlimit="10" stroke-dasharray=""/></g></g><g id="axis-bc2f44ae"><g id="yaxis-bc2f44ae"><title>Y axis</title><g><path fill="none" stroke="rgb(0,0,0)" class="dcg-svg-axis-line" paint-order="fill stroke markers" d=" M 27 0 L 27 400" stroke-opacity="0.9" stroke-miterlimit="10" stroke-width="1.5" stroke-dasharray=""/></g></g><g id="xaxis-bc2f44ae"><title>X axis</title><g><path fill="none" stroke="rgb(0,0,0)" class="dcg-svg-axis-line" paint-order="fill stroke markers" d=" M 0 218 L 400 218" stroke-opacity="0.9" stroke-miterlimit="10" stroke-width="1.5" stroke-dasharray=""/></g></g><g><g class="dcg-svg-axis-value"><text fill="none" stroke="#ffffff" font-family="Arial" font-size="14px" font-style="normal" font-weight="normal" text-decoration="normal" x="17.731761853040325" y="233.94918808625502" text-anchor="middle" stroke-miterlimit="2" stroke-width="3" stroke-dasharray="">0</text><text fill="#000000" stroke="none" font-family="Arial" font-size="14px" font-style="normal" font-weight="normal" text-decoration="normal" x="17.731761853040325" y="233.94918808625502" text-anchor="middle">0</text></g><g class="dcg-svg-axis-value"><text fill="none" stroke="#ffffff" font-family="Arial" font-size="14px" font-style="normal" font-weight="normal" text-decoration="normal" x="113.44285690235672" y="233.94918808625502" text-anchor="middle" stroke-miterlimit="2" stroke-width="3" stroke-dasharray="">5</text><text fill="#000000" stroke="none" font-family="Arial" font-size="14px" font-style="normal" font-weight="normal" text-decoration="normal" x="113.44285690235672" y="233.94918808625502" text-anchor="middle">5</text></g><g class="dcg-svg-axis-value"><text fill="none" stroke="#ffffff" font-family="Arial" font-size="14px" font-style="normal" font-weight="normal" text-decoration="normal" x="200.26088554542312" y="233.94918808625502" text-anchor="middle" stroke-miterlimit="2" stroke-width="3" stroke-dasharray="">10</text><text fill="#000000" stroke="none" font-family="Arial" font-size="14px" font-style="normal" font-weight="normal" text-decoration="normal" x="200.26088554542312" y="233.94918808625502" text-anchor="middle">10</text></g><g class="dcg-svg-axis-value"><text fill="none" stroke="#ffffff" font-family="Arial" font-size="14px" font-style="normal" font-weight="normal" text-decoration="normal" x="287.07891418848953" y="233.94918808625502" text-anchor="middle" stroke-miterlimit="2" stroke-width="3" stroke-dasharray="">15</text><text fill="#000000" stroke="none" font-family="Arial" font-size="14px" font-style="normal" font-weight="normal" text-decoration="normal" x="287.07891418848953" y="233.94918808625502" text-anchor="middle">15</text></g><g class="dcg-svg-axis-value"><text fill="none" stroke="#ffffff" font-family="Arial" font-size="14px" font-style="normal" font-weight="normal" text-decoration="normal" x="373.8969428315559" y="233.94918808625502" text-anchor="middle" stroke-miterlimit="2" stroke-width="3" stroke-dasharray="">20</text><text fill="#000000" stroke="none" font-family="Arial" font-size="14px" font-style="normal" font-weight="normal" text-decoration="normal" x="373.8969428315559" y="233.94918808625502" text-anchor="middle">20</text></g><g class="dcg-svg-axis-value"><text fill="none" stroke="#ffffff" font-family="Arial" font-size="14px" font-style="normal" font-weight="normal" text-decoration="normal" x="15.400707165540325" y="334.346246343173" text-anchor="middle" stroke-miterlimit="2" stroke-width="3" stroke-dasharray="">-2</text><text fill="#000000" stroke="none" font-family="Arial" font-size="14px" font-style="normal" font-weight="normal" text-decoration="normal" x="15.400707165540325" y="334.346246343173" text-anchor="middle">-2</text></g><g class="dcg-svg-axis-value"><text fill="none" stroke="#ffffff" font-family="Arial" font-size="14px" font-style="normal" font-weight="normal" text-decoration="normal" x="17.731761853040325" y="109.55212982933706" text-anchor="middle" stroke-miterlimit="2" stroke-width="3" stroke-dasharray="">2</text><text fill="#000000" stroke="none" font-family="Arial" font-size="14px" font-style="normal" font-weight="normal" text-decoration="normal" x="17.731761853040325" y="109.55212982933706" text-anchor="middle">2</text></g></g></g></g><g id="expressions-bc2f44ae"><g id="sketch-bc2f44ae"><title>Expression 1</title><path fill="#2d70b3" stroke="none" paint-order="stroke fill markers" d="" fill-opacity="0.4"/><g><path fill="none" stroke="#2d70b3" class="dcg-svg-curve" paint-order="fill stroke markers" d=" M 2.842170943040401e-14 218.07625175207122 L 2.842170943040401e-14 218.07625175207122 L 0.9765625000000284 217.73469967331798 L 1.9531250000000284 217.1011988097782 L 3.0273437500000284 216.06956539321178 L 4.296875000000028 214.40355249235324 L 5.664062500000028 212.07791938138124 L 7.031250000000028 209.21526412831417 L 8.496093750000025 205.57242223286062 L 10.058593750000028 201.05899318225983 L 11.816406250000027 195.25170296320331 L 13.671875000000027 188.34726375523576 L 15.722656250000028 179.88422834897162 L 18.06640625000003 169.29022875363853 L 20.80078125000003 155.93608974948273 L 24.41406250000003 137.18798538105779 L 33.30078125000003 90.63365151380285 L 36.13281250000003 77.13744985129566 L 38.47656250000003 66.92264239228263 L 40.52734375000002 58.85166606803557 L 42.38281250000002 52.34567219823683 L 44.14062500000003 46.94992389321342 L 45.70312500000003 42.826675203268024 L 47.16796875000003 39.5675346702165 L 48.53515625000003 37.07617691192456 L 49.90234375000002 35.13220899993925 L 51.17187500000002 33.82781641263645 L 52.24609375000003 33.106128360766235 L 53.22265625000003 32.75648562162888 L 54.19921875000003 32.699854348222885 L 55.07812500000003 32.89957818367759 L 56.05468750000003 33.39939574244616 L 57.12890625000003 34.28518673867222 L 58.30078125000002 35.64901390290862 L 59.66796875000003 37.75617902960653 L 61.03515625000003 40.406520316289146 L 62.50000000000003 43.830205824937536 L 64.06250000000003 48.121073764356765 L 65.72265625000003 53.36456551403256 L 67.57812500000003 60.001327313649114 L 69.62890625000003 68.20152136318757 L 71.87500000000003 78.09285014920843 L 74.51171875000001 90.70033125544803 L 77.83203125000003 107.67527787847887 L 89.16015625000003 166.57359190144928 L 91.69921875000003 178.24149991180357 L 93.94531250000003 187.630617850603 L 95.89843750000003 194.9551176083784 L 97.75390625000001 201.10056609501356 L 99.41406250000003 205.86910584580033 L 100.9765625 209.68648603198739 L 102.44140625000003 212.6464358831347 L 103.80859375000001 214.8496059975125 L 105.17578125000001 216.49857899683667 L 106.34765625000001 217.4630489695363 L 107.32421875000001 217.9467414728253 L 108.30078125000001 218.1378146473678 L 109.17968750000001 218.05907241896804 L 110.15625000000001 217.69327059660935 L 111.13281250000003 217.03565100144962 L 112.20703125000003 215.9777293102804 L 113.47656250000001 214.28110925056066 L 114.84375000000001 211.92325088374605 L 116.21093750000001 209.02932879028242 L 117.67578125000001 205.35427023539802 L 119.23828125000001 200.80819246407526 L 120.99609375000003 194.96661089255957 L 122.85156250000001 188.02914894801205 L 124.90234375000003 179.5338510299062 L 127.24609375000001 168.90898098264563 L 129.98046875 155.5276249102085 L 133.69140625000003 136.24136056686478 L 142.1875 91.68588315190826 L 145.01953125 78.10779468531112 L 147.4609375 67.39787497641211 L 149.609375 58.91386754471438 L 151.46484375 52.400685486593005 L 153.22265625 46.997546983695884 L 154.78515625000003 42.86731737121613 L 156.25000000000003 39.60133242171182 L 157.6171875 37.10336864558366 L 158.98437500000003 35.15262622005713 L 160.25390625000003 33.84182882069595 L 161.328125 33.11466144823427 L 162.30468750000003 32.76000862253949 L 163.28125 32.698356121720934 L 164.16015625 32.89356445092176 L 165.13671875000003 33.38838334919811 L 166.21093750000003 34.268716646985524 L 167.38281250000003 35.62666254554608 L 168.75000000000003 37.727096677842184 L 170.1171875 40.37088718119094 L 171.58203125 43.78780006338596 L 173.14453125000003 48.0717774685923 L 174.80468750000003 53.308386336980135 L 176.66015625 59.93806553887387 L 178.61328125000003 67.7220735323526 L 180.85937500000003 77.56858985148543 L 183.49609375 90.13468995266516 L 186.71875000000003 106.56520738311116 L 198.53515625000003 167.89028359956333 L 201.07421875 179.44719575349086 L 203.32031250000003 188.7165835893876 L 205.2734375 195.92214136658708 L 207.03125 201.64755478032365 L 208.69140625 206.3390099915813 L 210.25390625000003 210.07990582380742 L 211.71875000000003 212.965248121544 L 213.0859375 215.09672768673627 L 214.453125 216.67247882799415 L 215.62500000000003 217.57331214431426 L 216.6015625 218.00357821439 L 217.54764494823428 218.14118808625503 L 218.45703125000003 218.01404386993747 L 219.43359375000003 217.5947614450747 L 220.41015625 216.88397276484156 L 221.48437500000003 215.76812551258493 L 222.75390625000003 214.0040990713421 L 224.12109375 211.57531470716202 L 225.48828125 208.61262263007177 L 226.953125 204.86675829271655 L 228.515625 200.24898831681276 L 230.2734375 194.3321895399425 L 232.12890625 187.32239391246833 L 234.27734375000003 178.3291339114541 L 236.71875 167.1355561693989 L 239.55078125 153.13501979057372 L 243.45703125 132.6972811290671 L 250.87890625 93.72134290792582 L 253.80859375000003 79.53768623133138 L 256.25 68.69719795814416 L 258.3984375 60.07697905573957 L 260.3515625 53.104141134541806 L 262.109375 47.607727635708244 L 263.76953125 43.147372121760185 L 265.234375 39.834650958023275 L 266.6015625 37.291562572161695 L 267.96875 35.29452937851241 L 269.23828125 33.93995414313292 L 270.3125 33.17532500231468 L 271.2890625 32.78641081683867 L 272.265625 32.690413464059645 L 273.14453125 32.85472980643331 L 274.12109375 33.31534437795929 L 275.1953125 34.158323834037674 L 276.3671875 35.47600671376307 L 277.63671875 37.36537826720195 L 279.00390625 39.92589049106493 L 280.46875 43.25664987775954 L 282.03125 47.4529089420885 L 283.69140625 52.60181988322677 L 285.44921875 58.777441383553025 L 287.40234375 66.43653768998905 L 289.55078125 75.7184974757754 L 292.08984375 87.65588673254018 L 295.21484375 103.42597836930344 L 300.1953125 129.81028805766283 L 305.17578125 155.83534081864084 L 308.203125 170.5690970203333 L 310.64453125000006 181.47357899690627 L 312.79296875 190.1608780266809 L 314.74609375 197.20254753867653 L 316.50390625000006 202.76656130881744 L 318.1640625 207.2950326174244 L 319.62890625000006 210.67079620325063 L 321.09375 213.44013610950748 L 322.4609375 215.46028231768454 L 323.73046875 216.83672454859084 L 324.8046875 217.62007223338625 L 325.78125 218.02611086338356 L 326.7578125 218.13927917324693 L 327.63671875 217.99041158176635 L 328.61328125 217.54690676134612 L 329.58984375000006 216.8120470173645 L 330.76171875000006 215.54896327423432 L 332.03124999999994 213.71771706464324 L 333.3984375 211.2182636398136 L 334.86328125 207.9507353699041 L 336.42578124999994 203.81893175922485 L 338.0859375 198.73455111543956 L 339.84375 192.62217471006633 L 341.79687500000006 185.026450393427 L 343.9453125 175.8048909105148 L 346.484375 163.92509835243752 L 349.51171875 148.70886580727588 L 354.19921874999994 123.92835186477795 L 359.66796874999994 95.28055692865524 L 362.69531250000006 80.52512588295437 L 365.13671874999994 69.59722820516689 L 367.28515625 60.88532896890882 L 369.23828125 53.81837928396678 L 370.99609375 48.229510392541584 L 372.65625 43.675972738359974 L 374.12109375 40.27699339030028 L 375.5859375 37.483580196826836 L 376.953125 35.44034288818867 L 378.22265625 34.04204859307427 L 379.29687500000006 33.239990861871405 L 380.2734375 32.816832191963556 L 381.25000000000006 32.6864941526388 L 382.12890625 32.81991137834592 L 383.10546875 33.24630163662542 L 384.08203124999994 33.96415440580222 L 385.15625 35.087694975402314 L 386.42578124999994 36.86067020871329 L 387.79296875 39.29886606195768 L 389.16015625 42.27067869429922 L 390.625 46.02592804110941 L 392.1875 50.6531939440257 L 393.94531249999994 56.57994700683298 L 395.8984375 63.989017181312676 L 398.046875 73.03178822017739 L 400 81.9513865299146" stroke-linecap="round" stroke-linejoin="round" stroke-miterlimit="10" stroke-width="2.5" stroke-dasharray=""/></g></g></g><g id="labels-bc2f44ae"/><g id="labels-bc2f44ae"/></g></svg>