<?xml version="1.0" encoding="UTF-8" standalone="no"?>
<!-- Created with Inkscape (http://www.inkscape.org/) -->

<svg
   width="154.50058mm"
   height="117.3009mm"
   viewBox="0 0 154.50058 117.3009"
   version="1.1"
   id="svg5"
   inkscape:version="1.2.1 (9c6d41e410, 2022-07-14)"
   sodipodi:docname="osi.svg"
   xmlns:inkscape="http://www.inkscape.org/namespaces/inkscape"
   xmlns:sodipodi="http://sodipodi.sourceforge.net/DTD/sodipodi-0.dtd"
   xmlns:xlink="http://www.w3.org/1999/xlink"
   xmlns="http://www.w3.org/2000/svg"
   xmlns:svg="http://www.w3.org/2000/svg">
  <sodipodi:namedview
     id="namedview7"
     pagecolor="#ffffff"
     bordercolor="#111111"
     borderopacity="1"
     inkscape:pageshadow="0"
     inkscape:pageopacity="0"
     inkscape:pagecheckerboard="1"
     inkscape:document-units="mm"
     showgrid="false"
     showborder="false"
     inkscape:zoom="1.1169196"
     inkscape:cx="323.65803"
     inkscape:cy="296.35078"
     inkscape:window-width="2560"
     inkscape:window-height="1377"
     inkscape:window-x="1912"
     inkscape:window-y="-8"
     inkscape:window-maximized="1"
     inkscape:current-layer="layer1"
     inkscape:showpageshadow="0"
     inkscape:deskcolor="#d1d1d1" />
  <defs
     id="defs2">
    <linearGradient
       inkscape:collect="always"
       id="linearGradient37901">
      <stop
         style="stop-color:#000000;stop-opacity:0.96993464"
         offset="0"
         id="stop37897" />
      <stop
         style="stop-color:#0098db;stop-opacity:1"
         offset="1"
         id="stop37899" />
    </linearGradient>
    <linearGradient
       inkscape:collect="always"
       id="linearGradient33778">
      <stop
         style="stop-color:#000000;stop-opacity:0.96993464"
         offset="0"
         id="stop33774" />
      <stop
         style="stop-color:#0098db;stop-opacity:1"
         offset="1"
         id="stop33776" />
    </linearGradient>
    <linearGradient
       inkscape:collect="always"
       id="linearGradient29148">
      <stop
         style="stop-color:#050f34;stop-opacity:1"
         offset="0"
         id="stop29144" />
      <stop
         style="stop-color:#0098db;stop-opacity:1"
         offset="1"
         id="stop29146" />
    </linearGradient>
    <linearGradient
       inkscape:collect="always"
       id="linearGradient26975">
      <stop
         style="stop-color:#050f34;stop-opacity:1"
         offset="0"
         id="stop26971" />
      <stop
         style="stop-color:#0096d9;stop-opacity:1"
         offset="1"
         id="stop26973" />
    </linearGradient>
    <linearGradient
       inkscape:collect="always"
       id="linearGradient24880">
      <stop
         style="stop-color:#051237;stop-opacity:1"
         offset="0"
         id="stop24876" />
      <stop
         style="stop-color:#0098db;stop-opacity:1"
         offset="1"
         id="stop24878" />
    </linearGradient>
    <linearGradient
       inkscape:collect="always"
       id="linearGradient17669">
      <stop
         style="stop-color:#050f34;stop-opacity:1"
         offset="0"
         id="stop17665" />
      <stop
         style="stop-color:#0098db;stop-opacity:1"
         offset="1"
         id="stop17667" />
    </linearGradient>
    <linearGradient
       inkscape:collect="always"
       id="linearGradient14780">
      <stop
         style="stop-color:#000000;stop-opacity:0.96993464"
         offset="0"
         id="stop14776" />
      <stop
         style="stop-color:#0098db;stop-opacity:1"
         offset="1"
         id="stop14778" />
    </linearGradient>
    <linearGradient
       inkscape:collect="always"
       xlink:href="#linearGradient17669"
       id="linearGradient14782"
       x1="152.05872"
       y1="163.04381"
       x2="218.68396"
       y2="163.04381"
       gradientUnits="userSpaceOnUse" />
    <linearGradient
       inkscape:collect="always"
       xlink:href="#linearGradient26975"
       id="linearGradient14784"
       x1="152.05872"
       y1="178.52319"
       x2="218.68396"
       y2="178.52319"
       gradientUnits="userSpaceOnUse" />
    <linearGradient
       inkscape:collect="always"
       xlink:href="#linearGradient29148"
       id="linearGradient14786"
       x1="152.05872"
       y1="196.72289"
       x2="218.68396"
       y2="196.72289"
       gradientUnits="userSpaceOnUse" />
    <linearGradient
       inkscape:collect="always"
       xlink:href="#linearGradient24880"
       id="linearGradient14788"
       x1="152.05872"
       y1="212.20227"
       x2="218.68396"
       y2="212.20227"
       gradientUnits="userSpaceOnUse" />
    <linearGradient
       inkscape:collect="always"
       xlink:href="#linearGradient33778"
       id="linearGradient14790"
       x1="152.05872"
       y1="230.64253"
       x2="218.68396"
       y2="230.64253"
       gradientUnits="userSpaceOnUse" />
    <linearGradient
       inkscape:collect="always"
       xlink:href="#linearGradient37901"
       id="linearGradient14792"
       x1="152.05872"
       y1="246.1219"
       x2="218.68396"
       y2="246.1219"
       gradientUnits="userSpaceOnUse" />
    <linearGradient
       inkscape:collect="always"
       xlink:href="#linearGradient14780"
       id="linearGradient14794"
       x1="152.05872"
       y1="264.02719"
       x2="218.68396"
       y2="264.02719"
       gradientUnits="userSpaceOnUse" />
  </defs>
  <g
     inkscape:label="Layer 1"
     inkscape:groupmode="layer"
     id="layer1"
     transform="translate(-149.76316,-154.88403)">
    <path
       id="rect1024"
       style="fill:none;stroke:#05a0e3;stroke-width:0.5;stroke-linecap:round;stroke-linejoin:round;paint-order:stroke fill markers"
       d="m 152.35659,155.13402 h 149.31376 c 1.27975,0 2.31003,1.03027 2.31003,2.31003 v 26.6789 c 0,1.27976 -1.03028,2.31003 -2.31003,2.31003 H 152.35659 c -1.27976,0 -2.31004,-1.03027 -2.31004,-2.31003 v -26.6789 c 0,-1.27976 1.03028,-2.31003 2.31004,-2.31003 z" />
    <path
       id="rect1048"
       style="fill:url(#linearGradient14782);stroke:#000000;stroke-width:0.2;stroke-linecap:round;stroke-linejoin:round;paint-order:stroke fill markers"
       d="m 154.15871,157.17525 h 62.42525 c 1.108,0 2,0.892 2,2 v 7.73711 c 0,1.108 -0.892,2 -2,2 h -62.42525 c -1.108,0 -2,-0.892 -2,-2 v -7.73711 c 0,-1.108 0.892,-2 2,-2 z" />
    <path
       id="rect1256"
       style="fill:url(#linearGradient14784);stroke:#000000;stroke-width:0.2;stroke-linecap:round;stroke-linejoin:round;paint-order:stroke fill markers"
       d="m 154.15871,172.65463 h 62.42525 c 1.108,0 2,0.892 2,2 v 7.73712 c 0,1.108 -0.892,2 -2,2 h -62.42525 c -1.108,0 -2,-0.892 -2,-2 v -7.73712 c 0,-1.108 0.892,-2 2,-2 z" />
    <path
       id="rect1464"
       style="fill:none;stroke:#05a0e3;stroke-width:0.5;stroke-linecap:round;stroke-linejoin:round;paint-order:stroke fill markers"
       d="m 152.35659,188.8131 h 149.31376 c 1.27975,0 2.31003,1.03027 2.31003,2.31003 v 26.6789 c 0,1.27976 -1.03028,2.31003 -2.31003,2.31003 H 152.35659 c -1.27976,0 -2.31004,-1.03027 -2.31004,-2.31003 v -26.6789 c 0,-1.27976 1.03028,-2.31003 2.31004,-2.31003 z" />
    <path
       id="rect1466"
       style="fill:url(#linearGradient14786);stroke:#000000;stroke-width:0.2;stroke-linecap:round;stroke-linejoin:round;paint-order:stroke fill markers"
       d="m 154.15871,190.85432 h 62.42525 c 1.108,0 2,0.892 2,2 v 7.73712 c 0,1.108 -0.892,2 -2,2 h -62.42525 c -1.108,0 -2,-0.892 -2,-2 v -7.73712 c 0,-1.108 0.892,-2 2,-2 z" />
    <path
       id="rect1468"
       style="fill:url(#linearGradient14788);stroke:#000000;stroke-width:0.2;stroke-linecap:round;stroke-linejoin:round;paint-order:stroke fill markers"
       d="m 154.15871,206.33371 h 62.42525 c 1.108,0 2,0.892 2,2 v 7.73712 c 0,1.108 -0.892,2 -2,2 h -62.42525 c -1.108,0 -2,-0.892 -2,-2 v -7.73712 c 0,-1.108 0.892,-2 2,-2 z" />
    <path
       id="rect1470"
       style="fill:none;stroke:#05a0e3;stroke-width:0.5;stroke-linecap:round;stroke-linejoin:round;paint-order:stroke fill markers"
       d="m 152.35659,222.73274 h 149.31376 c 1.27975,0 2.31003,1.03028 2.31003,2.31003 v 26.67891 c 0,1.27975 -1.03028,2.31003 -2.31003,2.31003 H 152.35659 c -1.27976,0 -2.31004,-1.03028 -2.31004,-2.31003 v -26.67891 c 0,-1.27975 1.03028,-2.31003 2.31004,-2.31003 z" />
    <path
       id="rect1472"
       style="fill:url(#linearGradient14790);stroke:#000000;stroke-width:0.2;stroke-linecap:round;stroke-linejoin:round;paint-order:stroke fill markers"
       d="m 154.15871,224.77397 h 62.42525 c 1.108,0 2,0.892 2,2 v 7.73712 c 0,1.108 -0.892,2 -2,2 h -62.42525 c -1.108,0 -2,-0.892 -2,-2 v -7.73712 c 0,-1.108 0.892,-2 2,-2 z" />
    <path
       id="rect1474"
       style="fill:url(#linearGradient14792);stroke:#000000;stroke-width:0.2;stroke-linecap:round;stroke-linejoin:round;paint-order:stroke fill markers"
       d="m 154.15871,240.25336 h 62.42525 c 1.108,0 2,0.892 2,2 v 7.73711 c 0,1.108 -0.892,2 -2,2 h -62.42525 c -1.108,0 -2,-0.892 -2,-2 v -7.73711 c 0,-1.108 0.892,-2 2,-2 z" />
    <g
       aria-label="7.APPLICATION"
       id="text2688"
       style="font-size:7.05556px;line-height:1.25;fill:#ffffff;stroke-width:0.264583">
      <path
         d="m 158.55098,161.15291 h -2.43416 q -0.23989,0 -0.37395,-0.14817 -0.127,-0.14817 -0.127,-0.43039 h 3.429 q 0.14817,0 0.23284,0.0776 0.0847,0.0776 0.0847,0.20461 0,0.0847 -0.0353,0.15523 l -2.18017,4.31094 q -0.127,0.254 -0.38806,0.254 -0.21872,0 -0.38805,-0.11994 z"
         style="font-family:K2D;-inkscape-font-specification:K2D"
         id="path556" />
      <path
         d="m 159.93387,165.57674 q -0.19756,0 -0.33161,-0.127 -0.13406,-0.13405 -0.13406,-0.33161 0,-0.19755 0.13406,-0.33161 0.13405,-0.13405 0.33161,-0.13405 0.1905,0 0.33161,0.14111 0.14111,0.13405 0.14111,0.32455 0,0.1905 -0.14111,0.32456 -0.14111,0.13405 -0.33161,0.13405 z"
         style="font-family:K2D;-inkscape-font-specification:K2D"
         id="path558" />
      <path
         d="m 161.49315,165.57674 q -0.21167,-0.0423 -0.33162,-0.17638 -0.11994,-0.14112 -0.11994,-0.33867 0,-0.13406 0.0635,-0.28222 l 1.68628,-4.05695 q 0.0847,-0.21167 0.32455,-0.21167 0.22578,0 0.3175,0.21167 l 1.68628,4.05695 q 0.0635,0.14816 0.0635,0.28222 0,0.1905 -0.11994,0.33161 -0.11995,0.14111 -0.33161,0.18344 l -0.60678,-1.47461 h -2.02495 z m 2.42711,-2.04611 -0.91017,-2.30717 -0.0564,0.0212 0.127,0.32456 -0.77612,1.96144 z"
         style="font-family:K2D;-inkscape-font-specification:K2D"
         id="path560" />
      <path
         d="m 165.99459,160.8848 q 0,-0.13406 0.0917,-0.21873 0.0988,-0.0917 0.24694,-0.0917 h 2.06022 q 0.46567,0 0.8255,0.19756 0.35984,0.1905 0.55739,0.54328 0.19756,0.34572 0.19756,0.79727 0,0.46567 -0.19756,0.81845 -0.1905,0.35278 -0.55033,0.54328 -0.35983,0.1905 -0.83256,0.1905 h -1.73566 v 1.36172 q 0,0.26811 -0.16934,0.40922 -0.16933,0.14111 -0.49389,0.14111 z m 2.39889,2.19428 q 0.42334,0 0.67028,-0.254 0.24695,-0.26106 0.24695,-0.71262 0,-0.43744 -0.254,-0.69144 -0.24695,-0.26106 -0.66323,-0.26106 h -1.73566 v 1.91912 z"
         style="font-family:K2D;-inkscape-font-specification:K2D"
         id="path562" />
      <path
         d="m 170.78532,160.8848 q 0,-0.13406 0.0917,-0.21873 0.0988,-0.0917 0.24694,-0.0917 h 2.06022 q 0.46567,0 0.82551,0.19756 0.35983,0.1905 0.55738,0.54328 0.19756,0.34572 0.19756,0.79727 0,0.46567 -0.19756,0.81845 -0.1905,0.35278 -0.55033,0.54328 -0.35983,0.1905 -0.83256,0.1905 h -1.73566 v 1.36172 q 0,0.26811 -0.16934,0.40922 -0.16933,0.14111 -0.49389,0.14111 z m 2.39889,2.19428 q 0.42334,0 0.67028,-0.254 0.24695,-0.26106 0.24695,-0.71262 0,-0.43744 -0.254,-0.69144 -0.24695,-0.26106 -0.66323,-0.26106 h -1.73566 v 1.91912 z"
         style="font-family:K2D;-inkscape-font-specification:K2D"
         id="path564" />
      <path
         d="m 175.92178,165.51324 q -0.14111,0 -0.24695,-0.0988 -0.0988,-0.10584 -0.0988,-0.24695 v -4.10633 q 0,-0.55034 0.66322,-0.55034 v 4.41678 h 2.16606 q 0.24694,0 0.381,0.15523 0.13405,0.14816 0.13405,0.43038 z"
         style="font-family:K2D;-inkscape-font-specification:K2D"
         id="path566" />
      <path
         d="m 179.80234,161.06119 q 0,-0.26106 0.16933,-0.40217 0.17639,-0.14817 0.49389,-0.14817 v 4.51556 q 0,0.26106 -0.17639,0.40922 -0.16933,0.14111 -0.48683,0.14111 z"
         style="font-family:K2D;-inkscape-font-specification:K2D"
         id="path568" />
      <path
         d="m 183.56295,165.57674 q -0.59266,0 -1.05833,-0.21872 -0.46567,-0.22578 -0.72672,-0.62089 -0.254,-0.40216 -0.254,-0.91016 v -1.58045 q 0,-0.508 0.254,-0.90311 0.26105,-0.39511 0.71966,-0.61384 0.45862,-0.21872 1.05128,-0.21872 0.59267,0 1.05128,0.1905 0.45861,0.18345 0.71261,0.51506 0.26106,0.33161 0.26106,0.762 0,0.21167 -0.14111,0.33161 -0.14111,0.11994 -0.37395,0.11994 -0.0494,0 -0.14816,-0.0141 0.0141,-0.0847 0.0141,-0.26811 0,-0.30339 -0.17639,-0.54328 -0.16934,-0.23988 -0.48684,-0.37394 -0.31044,-0.13406 -0.71261,-0.13406 -0.39511,0 -0.70555,0.14817 -0.31045,0.14111 -0.48684,0.40922 -0.16933,0.26106 -0.16933,0.59267 v 1.58045 q 0,0.33866 0.16933,0.60677 0.17639,0.26106 0.48684,0.40923 0.3175,0.14816 0.71966,0.14816 0.40923,0 0.72673,-0.13405 0.3175,-0.13406 0.49389,-0.36689 0.17638,-0.23989 0.17638,-0.55034 0,-0.11288 -0.0141,-0.26811 0.0988,-0.0141 0.14111,-0.0141 0.23284,0 0.37395,0.13406 0.14817,0.13405 0.14817,0.35983 0,0.41628 -0.26106,0.74084 -0.26106,0.32455 -0.72672,0.508 -0.45861,0.17638 -1.05834,0.17638 z"
         style="font-family:K2D;-inkscape-font-specification:K2D"
         id="path570" />
      <path
         d="m 186.69562,165.57674 q -0.21166,-0.0423 -0.33161,-0.17638 -0.11994,-0.14112 -0.11994,-0.33867 0,-0.13406 0.0635,-0.28222 l 1.68628,-4.05695 q 0.0847,-0.21167 0.32455,-0.21167 0.22578,0 0.3175,0.21167 l 1.68628,4.05695 q 0.0635,0.14816 0.0635,0.28222 0,0.1905 -0.11994,0.33161 -0.11995,0.14111 -0.33161,0.18344 l -0.60678,-1.47461 h -2.02495 z m 2.42712,-2.04611 -0.91017,-2.30717 -0.0565,0.0212 0.127,0.32456 -0.77611,1.96144 z"
         style="font-family:K2D;-inkscape-font-specification:K2D"
         id="path572" />
      <path
         d="m 191.93085,161.15996 h -1.72156 q 0,-0.58561 0.55034,-0.58561 h 3.54894 q 0,0.58561 -0.55033,0.58561 h -1.16417 v 3.86645 q 0,0.26811 -0.16933,0.40922 -0.16933,0.14111 -0.49389,0.14111 z"
         style="font-family:K2D;-inkscape-font-specification:K2D"
         id="path574" />
      <path
         d="m 195.19053,161.06119 q 0,-0.26106 0.16933,-0.40217 0.17639,-0.14817 0.49389,-0.14817 v 4.51556 q 0,0.26106 -0.17639,0.40922 -0.16933,0.14111 -0.48683,0.14111 z"
         style="font-family:K2D;-inkscape-font-specification:K2D"
         id="path576" />
      <path
         d="m 198.83825,165.57674 q -0.58561,0 -1.05128,-0.22577 -0.45861,-0.23284 -0.71966,-0.635 -0.26106,-0.40923 -0.26106,-0.90312 v -1.55222 q 0,-0.49389 0.26106,-0.889 0.26105,-0.40217 0.71966,-0.62794 0.46567,-0.23284 1.05128,-0.23284 0.59267,0 1.05128,0.23284 0.46567,0.22577 0.72672,0.62794 0.26106,0.39511 0.26106,0.889 v 1.55222 q 0,0.49389 -0.26106,0.90312 -0.26105,0.40216 -0.72672,0.635 -0.46567,0.22577 -1.05128,0.22577 z m 0,-0.57855 q 0.65617,0 1.02306,-0.32456 0.36689,-0.32455 0.36689,-0.86783 v -1.53106 q 0,-0.54328 -0.36689,-0.86078 -0.36689,-0.32455 -1.02306,-0.32455 -0.64911,0 -1.016,0.32455 -0.36689,0.3175 -0.36689,0.86078 v 1.53106 q 0,0.54328 0.36689,0.86783 0.36689,0.32456 1.016,0.32456 z"
         style="font-family:K2D;-inkscape-font-specification:K2D"
         id="path578" />
      <path
         d="m 201.6887,161.08235 q 0,-0.26811 0.16228,-0.41628 0.16933,-0.15522 0.46566,-0.15522 l 2.73756,4.16278 0.0494,-0.0423 -0.20461,-0.33867 v -3.78178 q 0.32455,0 0.48683,0.14111 0.16934,0.14111 0.16934,0.40923 v 3.99344 q 0,0.22578 -0.16228,0.37395 -0.15523,0.14816 -0.40217,0.14816 l -2.80106,-4.2545 -0.0494,0.0423 0.20462,0.33866 v 3.32317 q 0,0.26811 -0.16934,0.40922 -0.16228,0.14111 -0.48683,0.14111 z"
         style="font-family:K2D;-inkscape-font-specification:K2D"
         id="path580" />
    </g>
    <g
       aria-label="6.PRESENTATION"
       id="text8808"
       style="font-size:7.05556px;line-height:1.25;fill:#ffffff;stroke-width:0.264583">
      <path
         d="m 157.6126,181.05613 q -0.55034,0 -0.99484,-0.23989 -0.43744,-0.23989 -0.68439,-0.66322 -0.24694,-0.43039 -0.24694,-0.95956 0,-0.35983 0.14816,-0.71261 0.14817,-0.35983 0.42334,-0.65617 l 1.53105,-1.65805 q 0.15523,-0.17639 0.35278,-0.17639 0.24695,0 0.43039,0.20461 l -1.09361,1.18533 q -0.16228,0.0353 -0.34572,0.11289 l 0.0282,0.0565 q 0.127,-0.0494 0.29633,-0.0847 0.16934,-0.0353 0.30339,-0.0353 0.49389,0 0.90311,0.23284 0.40923,0.23283 0.64206,0.635 0.23283,0.40216 0.23283,0.89605 0,0.52917 -0.254,0.95956 -0.24694,0.42333 -0.68439,0.66322 -0.43744,0.23989 -0.98777,0.23989 z m 0,-0.58561 q 0.35983,0 0.64911,-0.16228 0.29633,-0.16933 0.45861,-0.45861 0.16933,-0.29633 0.16933,-0.65617 0,-0.35983 -0.16933,-0.64911 -0.16228,-0.29633 -0.45861,-0.45861 -0.28928,-0.16933 -0.64911,-0.16933 -0.35984,0 -0.64912,0.16933 -0.28927,0.16228 -0.45861,0.45861 -0.16228,0.28928 -0.16228,0.64911 0,0.35984 0.16228,0.65617 0.16934,0.28928 0.45861,0.45861 0.28928,0.16228 0.64912,0.16228 z"
         style="font-family:K2D;-inkscape-font-specification:K2D"
         id="path527" />
      <path
         d="m 160.63943,181.05613 q -0.19756,0 -0.33161,-0.127 -0.13406,-0.13406 -0.13406,-0.33161 0,-0.19756 0.13406,-0.33161 0.13405,-0.13406 0.33161,-0.13406 0.1905,0 0.33161,0.14111 0.14111,0.13406 0.14111,0.32456 0,0.1905 -0.14111,0.32455 -0.14111,0.13406 -0.33161,0.13406 z"
         style="font-family:K2D;-inkscape-font-specification:K2D"
         id="path529" />
      <path
         d="m 161.92354,176.36418 q 0,-0.13405 0.0917,-0.21872 0.0988,-0.0917 0.24694,-0.0917 h 2.06023 q 0.46566,0 0.8255,0.19755 0.35983,0.1905 0.55739,0.54328 0.19755,0.34572 0.19755,0.79728 0,0.46567 -0.19755,0.81845 -0.1905,0.35277 -0.55034,0.54327 -0.35983,0.1905 -0.83255,0.1905 h -1.73567 v 1.36173 q 0,0.26811 -0.16933,0.40922 -0.16934,0.14111 -0.49389,0.14111 z m 2.39889,2.19428 q 0.42333,0 0.67028,-0.254 0.24694,-0.26105 0.24694,-0.71261 0,-0.43744 -0.254,-0.69144 -0.24694,-0.26106 -0.66322,-0.26106 h -1.73567 v 1.91911 z"
         style="font-family:K2D;-inkscape-font-specification:K2D"
         id="path531" />
      <path
         d="m 166.71427,176.36418 q 0,-0.13405 0.0917,-0.21872 0.0988,-0.0917 0.24694,-0.0917 h 1.94734 q 0.68439,0 1.08656,0.40216 0.40922,0.39512 0.40922,1.05834 0,0.83255 -0.72672,1.17828 v 0.0212 q 0.3175,0.13406 0.48683,0.40923 0.16933,0.26811 0.16933,0.65616 v 0.72673 q 0,0.26811 -0.16933,0.40922 -0.16933,0.14111 -0.49389,0.14111 v -1.23472 q 0,-0.41628 -0.1905,-0.62795 -0.18344,-0.21872 -0.55033,-0.21872 h -1.651 v 1.53106 q 0,0.26811 -0.16934,0.40922 -0.16228,0.14111 -0.48683,0.14111 z m 2.26483,2.03906 q 0.38806,0 0.61384,-0.23989 0.23283,-0.23989 0.23283,-0.65617 0,-0.42333 -0.21872,-0.64911 -0.21872,-0.22578 -0.62795,-0.22578 h -1.60866 v 1.77095 z"
         style="font-family:K2D;-inkscape-font-specification:K2D"
         id="path533" />
      <path
         d="m 171.41327,176.36418 q 0,-0.13405 0.0988,-0.21872 0.0988,-0.0917 0.23989,-0.0917 h 3.12561 q 0,0.29633 -0.11994,0.43744 -0.11994,0.14111 -0.37395,0.14111 h -2.30716 v 1.58045 h 1.97555 q 0,0.29633 -0.11994,0.43744 -0.11995,0.14112 -0.36689,0.14112 h -1.48872 v 1.62277 h 2.45533 q 0.24695,0 0.36689,0.14112 0.11995,0.14111 0.11995,0.43744 h -3.26673 q -0.14111,0 -0.23989,-0.0847 -0.0988,-0.0917 -0.0988,-0.22577 z"
         style="font-family:K2D;-inkscape-font-specification:K2D"
         id="path535" />
      <path
         d="m 177.41755,181.05613 q -0.59266,0 -1.03011,-0.16933 -0.43039,-0.16934 -0.65616,-0.45156 -0.22578,-0.28222 -0.22578,-0.60678 0,-0.26811 0.14111,-0.40922 0.14111,-0.14817 0.43039,-0.14817 0,0.59973 0.35983,0.91723 0.35983,0.31044 1.00895,0.31044 0.62089,0 0.9525,-0.20461 0.33161,-0.21167 0.33161,-0.62089 0,-0.24694 -0.127,-0.40217 -0.11995,-0.16227 -0.41628,-0.27516 -0.28928,-0.11995 -0.83961,-0.23989 -0.64911,-0.14111 -1.03011,-0.32456 -0.381,-0.1905 -0.55739,-0.45861 -0.17639,-0.26811 -0.17639,-0.66322 0,-0.39511 0.21872,-0.69145 0.22578,-0.30339 0.635,-0.46566 0.40922,-0.16228 0.9525,-0.16228 0.51506,0 0.91722,0.14816 0.40923,0.14112 0.63501,0.40923 0.23283,0.26105 0.23283,0.59266 0,0.20462 -0.13406,0.32456 -0.127,0.11289 -0.40216,0.11289 -0.0776,-0.53622 -0.381,-0.78317 -0.29634,-0.24694 -0.86784,-0.24694 -0.55033,0 -0.84667,0.19755 -0.29633,0.1905 -0.29633,0.54328 0,0.24695 0.10583,0.40922 0.11289,0.15523 0.37395,0.26811 0.26811,0.11289 0.74789,0.21873 0.71967,0.15522 1.12889,0.34572 0.41628,0.1905 0.59972,0.46567 0.18345,0.27516 0.18345,0.67733 0,0.64206 -0.53623,1.016 -0.53622,0.36689 -1.43228,0.36689 z"
         style="font-family:K2D;-inkscape-font-specification:K2D"
         id="path537" />
      <path
         d="m 180.19744,176.36418 q 0,-0.13405 0.0988,-0.21872 0.0988,-0.0917 0.23988,-0.0917 h 3.12562 q 0,0.29633 -0.11995,0.43744 -0.11994,0.14111 -0.37394,0.14111 h -2.30717 v 1.58045 h 1.97556 q 0,0.29633 -0.11995,0.43744 -0.11994,0.14112 -0.36689,0.14112 h -1.48872 v 1.62277 h 2.45534 q 0.24694,0 0.36688,0.14112 0.11995,0.14111 0.11995,0.43744 h -3.26673 q -0.14111,0 -0.23988,-0.0847 -0.0988,-0.0917 -0.0988,-0.22577 z"
         style="font-family:K2D;-inkscape-font-specification:K2D"
         id="path539" />
      <path
         d="m 184.61421,176.56174 q 0,-0.26811 0.16228,-0.41628 0.16934,-0.15522 0.46567,-0.15522 l 2.73756,4.16278 0.0494,-0.0423 -0.20462,-0.33866 v -3.78178 q 0.32456,0 0.48684,0.14111 0.16933,0.14111 0.16933,0.40922 v 3.99345 q 0,0.22578 -0.16228,0.37394 -0.15522,0.14817 -0.40216,0.14817 l -2.80106,-4.2545 -0.0494,0.0423 0.20461,0.33867 v 3.32317 q 0,0.26811 -0.16933,0.40922 -0.16228,0.14111 -0.48684,0.14111 z"
         style="font-family:K2D;-inkscape-font-specification:K2D"
         id="path541" />
      <path
         d="m 190.76667,176.63935 h -1.72156 q 0,-0.58561 0.55033,-0.58561 h 3.54895 q 0,0.58561 -0.55033,0.58561 h -1.16417 v 3.86645 q 0,0.26811 -0.16934,0.40922 -0.16933,0.14111 -0.49388,0.14111 z"
         style="font-family:K2D;-inkscape-font-specification:K2D"
         id="path543" />
      <path
         d="m 193.41956,181.05613 q -0.21166,-0.0423 -0.33161,-0.17639 -0.11994,-0.14111 -0.11994,-0.33867 0,-0.13405 0.0635,-0.28222 l 1.68628,-4.05695 q 0.0847,-0.21166 0.32455,-0.21166 0.22578,0 0.3175,0.21166 l 1.68628,4.05695 q 0.0635,0.14817 0.0635,0.28222 0,0.1905 -0.11994,0.33162 -0.11995,0.14111 -0.33161,0.18344 l -0.60678,-1.47461 h -2.02495 z m 2.42712,-2.04611 -0.91017,-2.30717 -0.0564,0.0212 0.127,0.32455 -0.77612,1.96145 z"
         style="font-family:K2D;-inkscape-font-specification:K2D"
         id="path545" />
      <path
         d="m 198.65479,176.63935 h -1.72155 q 0,-0.58561 0.55033,-0.58561 h 3.54895 q 0,0.58561 -0.55034,0.58561 h -1.16417 v 3.86645 q 0,0.26811 -0.16933,0.40922 -0.16933,0.14111 -0.49389,0.14111 z"
         style="font-family:K2D;-inkscape-font-specification:K2D"
         id="path547" />
      <path
         d="m 201.91447,176.54057 q 0,-0.26105 0.16933,-0.40217 0.17639,-0.14816 0.49389,-0.14816 v 4.51556 q 0,0.26105 -0.17639,0.40922 -0.16933,0.14111 -0.48683,0.14111 z"
         style="font-family:K2D;-inkscape-font-specification:K2D"
         id="path549" />
      <path
         d="m 205.56219,181.05613 q -0.58561,0 -1.05127,-0.22578 -0.45862,-0.23283 -0.71967,-0.635 -0.26106,-0.40922 -0.26106,-0.90311 v -1.55222 q 0,-0.49389 0.26106,-0.889 0.26105,-0.40217 0.71967,-0.62795 0.46566,-0.23283 1.05127,-0.23283 0.59267,0 1.05128,0.23283 0.46567,0.22578 0.72672,0.62795 0.26106,0.39511 0.26106,0.889 v 1.55222 q 0,0.49389 -0.26106,0.90311 -0.26105,0.40217 -0.72672,0.635 -0.46566,0.22578 -1.05128,0.22578 z m 0,-0.57856 q 0.65617,0 1.02306,-0.32455 0.36689,-0.32456 0.36689,-0.86784 v -1.53105 q 0,-0.54328 -0.36689,-0.86078 -0.36689,-0.32456 -1.02306,-0.32456 -0.64911,0 -1.016,0.32456 -0.36689,0.3175 -0.36689,0.86078 v 1.53105 q 0,0.54328 0.36689,0.86784 0.36689,0.32455 1.016,0.32455 z"
         style="font-family:K2D;-inkscape-font-specification:K2D"
         id="path551" />
      <path
         d="m 208.41264,176.56174 q 0,-0.26811 0.16228,-0.41628 0.16933,-0.15522 0.46566,-0.15522 l 2.73756,4.16278 0.0494,-0.0423 -0.20461,-0.33866 v -3.78178 q 0.32456,0 0.48683,0.14111 0.16934,0.14111 0.16934,0.40922 v 3.99345 q 0,0.22578 -0.16228,0.37394 -0.15522,0.14817 -0.40217,0.14817 l -2.80106,-4.2545 -0.0494,0.0423 0.20461,0.33867 v 3.32317 q 0,0.26811 -0.16934,0.40922 -0.16227,0.14111 -0.48683,0.14111 z"
         style="font-family:K2D;-inkscape-font-specification:K2D"
         id="path553" />
    </g>
    <g
       aria-label="5.SESSION"
       id="text8812"
       style="font-size:7.05556px;line-height:1.25;fill:#ffffff;stroke-width:0.264583">
      <path
         d="m 157.51382,199.25582 q -0.52211,0 -0.93839,-0.16933 -0.41628,-0.16934 -0.65617,-0.47272 -0.23283,-0.30339 -0.23283,-0.67734 0,-0.27516 0.14816,-0.39511 0.15523,-0.11994 0.47978,-0.0988 -0.0141,0.18345 -0.0141,0.23989 0,0.46567 0.3175,0.72672 0.3175,0.26106 0.89606,0.26106 0.57855,0 0.89605,-0.32456 0.32456,-0.32455 0.32456,-0.91016 0,-0.59267 -0.3175,-0.89606 -0.31045,-0.31044 -0.91017,-0.31044 -0.3175,0 -0.59267,0.0988 -0.26811,0.0988 -0.46566,0.28928 -0.11289,0.11289 -0.26106,0.11289 -0.14816,0 -0.254,-0.10583 -0.10583,-0.10584 -0.0776,-0.26106 l 0.28928,-1.86972 q 0.0141,-0.11289 0.10583,-0.17639 0.0917,-0.0635 0.23284,-0.0635 h 2.667 q 0,0.57856 -0.508,0.57856 h -1.9685 l -0.15523,1.04422 q -0.14816,0.10583 -0.254,0.21167 l 0.0212,0.0353 q 0.27517,-0.21872 0.62794,-0.33866 0.35984,-0.127 0.70556,-0.127 0.83256,0 1.29822,0.47272 0.46567,0.46567 0.46567,1.30528 0,0.55033 -0.23283,0.96661 -0.22578,0.40922 -0.64911,0.635 -0.42334,0.21872 -0.98778,0.21872 z"
         style="font-family:K2D;-inkscape-font-specification:K2D"
         id="path508" />
      <path
         d="m 160.48421,199.25582 q -0.19756,0 -0.33161,-0.127 -0.13406,-0.13405 -0.13406,-0.33161 0,-0.19756 0.13406,-0.33161 0.13405,-0.13406 0.33161,-0.13406 0.1905,0 0.33161,0.14111 0.14111,0.13406 0.14111,0.32456 0,0.1905 -0.14111,0.32456 -0.14111,0.13405 -0.33161,0.13405 z"
         style="font-family:K2D;-inkscape-font-specification:K2D"
         id="path510" />
      <path
         d="m 163.53221,199.25582 q -0.59267,0 -1.03011,-0.16933 -0.43039,-0.16934 -0.65617,-0.45156 -0.22578,-0.28222 -0.22578,-0.60678 0,-0.26811 0.14111,-0.40922 0.14112,-0.14816 0.43039,-0.14816 0,0.59972 0.35984,0.91722 0.35983,0.31044 1.00894,0.31044 0.62089,0 0.9525,-0.20461 0.33161,-0.21167 0.33161,-0.62089 0,-0.24694 -0.127,-0.40216 -0.11994,-0.16228 -0.41627,-0.27517 -0.28928,-0.11995 -0.83962,-0.23989 -0.64911,-0.14111 -1.03011,-0.32456 -0.381,-0.1905 -0.55739,-0.45861 -0.17639,-0.26811 -0.17639,-0.66322 0,-0.39511 0.21873,-0.69145 0.22577,-0.30338 0.635,-0.46566 0.40922,-0.16228 0.9525,-0.16228 0.51505,0 0.91722,0.14817 0.40922,0.14111 0.635,0.40922 0.23283,0.26105 0.23283,0.59267 0,0.20461 -0.13405,0.32455 -0.127,0.11289 -0.40217,0.11289 -0.0776,-0.53622 -0.381,-0.78317 -0.29633,-0.24694 -0.86783,-0.24694 -0.55034,0 -0.84667,0.19755 -0.29633,0.1905 -0.29633,0.54328 0,0.24695 0.10583,0.40923 0.11289,0.15522 0.37394,0.26811 0.26812,0.11289 0.74789,0.21872 0.71967,0.15522 1.12889,0.34572 0.41628,0.1905 0.59973,0.46567 0.18344,0.27517 0.18344,0.67733 0,0.64206 -0.53622,1.016 -0.53622,0.36689 -1.43228,0.36689 z"
         style="font-family:K2D;-inkscape-font-specification:K2D"
         id="path512" />
      <path
         d="m 166.31209,194.56387 q 0,-0.13405 0.0988,-0.21872 0.0988,-0.0917 0.23989,-0.0917 h 3.12561 q 0,0.29633 -0.11994,0.43744 -0.11995,0.14112 -0.37395,0.14112 h -2.30716 v 1.58044 h 1.97555 q 0,0.29633 -0.11994,0.43745 -0.11995,0.14111 -0.36689,0.14111 h -1.48872 v 1.62278 h 2.45533 q 0.24695,0 0.36689,0.14111 0.11994,0.14111 0.11994,0.43744 h -3.26672 q -0.14111,0 -0.23989,-0.0847 -0.0988,-0.0917 -0.0988,-0.22578 z"
         style="font-family:K2D;-inkscape-font-specification:K2D"
         id="path514" />
      <path
         d="m 172.31637,199.25582 q -0.59266,0 -1.03011,-0.16933 -0.43039,-0.16934 -0.65616,-0.45156 -0.22578,-0.28222 -0.22578,-0.60678 0,-0.26811 0.14111,-0.40922 0.14111,-0.14816 0.43039,-0.14816 0,0.59972 0.35983,0.91722 0.35983,0.31044 1.00895,0.31044 0.62089,0 0.9525,-0.20461 0.33161,-0.21167 0.33161,-0.62089 0,-0.24694 -0.127,-0.40216 -0.11995,-0.16228 -0.41628,-0.27517 -0.28928,-0.11995 -0.83961,-0.23989 -0.64911,-0.14111 -1.03011,-0.32456 -0.381,-0.1905 -0.55739,-0.45861 -0.17639,-0.26811 -0.17639,-0.66322 0,-0.39511 0.21872,-0.69145 0.22578,-0.30338 0.635,-0.46566 0.40922,-0.16228 0.9525,-0.16228 0.51506,0 0.91722,0.14817 0.40923,0.14111 0.635,0.40922 0.23284,0.26105 0.23284,0.59267 0,0.20461 -0.13406,0.32455 -0.127,0.11289 -0.40216,0.11289 -0.0776,-0.53622 -0.381,-0.78317 -0.29634,-0.24694 -0.86784,-0.24694 -0.55033,0 -0.84667,0.19755 -0.29633,0.1905 -0.29633,0.54328 0,0.24695 0.10583,0.40923 0.11289,0.15522 0.37395,0.26811 0.26811,0.11289 0.74789,0.21872 0.71967,0.15522 1.12889,0.34572 0.41628,0.1905 0.59972,0.46567 0.18345,0.27517 0.18345,0.67733 0,0.64206 -0.53623,1.016 -0.53622,0.36689 -1.43228,0.36689 z"
         style="font-family:K2D;-inkscape-font-specification:K2D"
         id="path516" />
      <path
         d="m 176.86015,199.25582 q -0.59267,0 -1.03011,-0.16933 -0.43039,-0.16934 -0.65617,-0.45156 -0.22578,-0.28222 -0.22578,-0.60678 0,-0.26811 0.14111,-0.40922 0.14111,-0.14816 0.43039,-0.14816 0,0.59972 0.35984,0.91722 0.35983,0.31044 1.00894,0.31044 0.62089,0 0.9525,-0.20461 0.33161,-0.21167 0.33161,-0.62089 0,-0.24694 -0.127,-0.40216 -0.11994,-0.16228 -0.41628,-0.27517 -0.28927,-0.11995 -0.83961,-0.23989 -0.64911,-0.14111 -1.03011,-0.32456 -0.381,-0.1905 -0.55739,-0.45861 -0.17639,-0.26811 -0.17639,-0.66322 0,-0.39511 0.21873,-0.69145 0.22577,-0.30338 0.635,-0.46566 0.40922,-0.16228 0.9525,-0.16228 0.51505,0 0.91722,0.14817 0.40922,0.14111 0.635,0.40922 0.23283,0.26105 0.23283,0.59267 0,0.20461 -0.13405,0.32455 -0.127,0.11289 -0.40217,0.11289 -0.0776,-0.53622 -0.381,-0.78317 -0.29633,-0.24694 -0.86783,-0.24694 -0.55034,0 -0.84667,0.19755 -0.29633,0.1905 -0.29633,0.54328 0,0.24695 0.10583,0.40923 0.11289,0.15522 0.37394,0.26811 0.26811,0.11289 0.74789,0.21872 0.71967,0.15522 1.12889,0.34572 0.41628,0.1905 0.59973,0.46567 0.18344,0.27517 0.18344,0.67733 0,0.64206 -0.53622,1.016 -0.53623,0.36689 -1.43228,0.36689 z"
         style="font-family:K2D;-inkscape-font-specification:K2D"
         id="path518" />
      <path
         d="m 179.78114,194.74026 q 0,-0.26105 0.16934,-0.40216 0.17639,-0.14817 0.49389,-0.14817 v 4.51556 q 0,0.26105 -0.17639,0.40922 -0.16934,0.14111 -0.48684,0.14111 z"
         style="font-family:K2D;-inkscape-font-specification:K2D"
         id="path520" />
      <path
         d="m 183.42887,199.25582 q -0.58561,0 -1.05128,-0.22578 -0.45861,-0.23283 -0.71967,-0.635 -0.26105,-0.40922 -0.26105,-0.90311 v -1.55222 q 0,-0.49389 0.26105,-0.889 0.26106,-0.40217 0.71967,-0.62795 0.46567,-0.23283 1.05128,-0.23283 0.59267,0 1.05128,0.23283 0.46566,0.22578 0.72672,0.62795 0.26106,0.39511 0.26106,0.889 v 1.55222 q 0,0.49389 -0.26106,0.90311 -0.26106,0.40217 -0.72672,0.635 -0.46567,0.22578 -1.05128,0.22578 z m 0,-0.57855 q 0.65617,0 1.02305,-0.32456 0.36689,-0.32456 0.36689,-0.86783 v -1.53106 q 0,-0.54328 -0.36689,-0.86078 -0.36688,-0.32455 -1.02305,-0.32455 -0.64911,0 -1.016,0.32455 -0.36689,0.3175 -0.36689,0.86078 v 1.53106 q 0,0.54327 0.36689,0.86783 0.36689,0.32456 1.016,0.32456 z"
         style="font-family:K2D;-inkscape-font-specification:K2D"
         id="path522" />
      <path
         d="m 186.27931,194.76143 q 0,-0.26811 0.16228,-0.41628 0.16934,-0.15522 0.46567,-0.15522 l 2.73756,4.16278 0.0494,-0.0423 -0.20462,-0.33867 v -3.78178 q 0.32456,0 0.48684,0.14111 0.16933,0.14111 0.16933,0.40922 v 3.99345 q 0,0.22578 -0.16228,0.37395 -0.15522,0.14816 -0.40216,0.14816 l -2.80106,-4.2545 -0.0494,0.0423 0.20461,0.33867 v 3.32317 q 0,0.26811 -0.16933,0.40922 -0.16228,0.14111 -0.48684,0.14111 z"
         style="font-family:K2D;-inkscape-font-specification:K2D"
         id="path524" />
    </g>
    <g
       aria-label="4.TRANSPORT"
       id="text8816"
       style="font-size:7.05556px;line-height:1.25;fill:#ffffff;stroke-width:0.264583">
      <path
         d="m 158.1841,213.44404 h -2.27895 q -0.13406,0 -0.21167,-0.0706 -0.0776,-0.0705 -0.0776,-0.1905 0,-0.11288 0.0776,-0.21166 l 2.58234,-3.18912 q 0.0423,-0.0494 0.11994,-0.0776 0.0776,-0.0353 0.16934,-0.0353 0.13405,0 0.21166,0.0847 0.0776,0.0776 0.0776,0.21167 v 2.89983 h 0.8255 q 0,0.30339 -0.11994,0.4445 -0.11289,0.13406 -0.35983,0.13406 h -0.34573 v 0.79022 q 0,0.50095 -0.67027,0.50095 z m 0.0282,-0.57856 v -2.04611 l 0.21872,-0.28928 -0.0423,-0.0282 -1.87678,2.36361 z"
         style="font-family:K2D;-inkscape-font-specification:K2D"
         id="path485" />
      <path
         d="m 160.70999,214.73521 q -0.19756,0 -0.33162,-0.127 -0.13405,-0.13406 -0.13405,-0.33161 0,-0.19756 0.13405,-0.33162 0.13406,-0.13405 0.33162,-0.13405 0.1905,0 0.33161,0.14111 0.14111,0.13406 0.14111,0.32456 0,0.1905 -0.14111,0.32455 -0.14111,0.13406 -0.33161,0.13406 z"
         style="font-family:K2D;-inkscape-font-specification:K2D"
         id="path487" />
      <path
         d="m 162.86899,210.31843 h -1.72156 q 0,-0.58561 0.55034,-0.58561 h 3.54894 q 0,0.58561 -0.55033,0.58561 h -1.16417 v 3.86644 q 0,0.26811 -0.16933,0.40923 -0.16933,0.14111 -0.49389,0.14111 z"
         style="font-family:K2D;-inkscape-font-specification:K2D"
         id="path489" />
      <path
         d="m 165.98755,210.04326 q 0,-0.13406 0.0917,-0.21872 0.0988,-0.0917 0.24694,-0.0917 h 1.94734 q 0.68439,0 1.08655,0.40216 0.40923,0.39511 0.40923,1.05834 0,0.83255 -0.72673,1.17827 v 0.0212 q 0.3175,0.13406 0.48684,0.40922 0.16933,0.26812 0.16933,0.65617 v 0.72672 q 0,0.26811 -0.16933,0.40923 -0.16934,0.14111 -0.49389,0.14111 v -1.23473 q 0,-0.41627 -0.1905,-0.62794 -0.18345,-0.21872 -0.55034,-0.21872 h -1.651 v 1.53105 q 0,0.26811 -0.16933,0.40923 -0.16228,0.14111 -0.48684,0.14111 z m 2.26484,2.03906 q 0.38806,0 0.61383,-0.23989 0.23284,-0.23989 0.23284,-0.65617 0,-0.42333 -0.21873,-0.64911 -0.21872,-0.22578 -0.62794,-0.22578 h -1.60867 v 1.77095 z"
         style="font-family:K2D;-inkscape-font-specification:K2D"
         id="path491" />
      <path
         d="m 170.96173,214.73521 q -0.21167,-0.0423 -0.33161,-0.17639 -0.11995,-0.14111 -0.11995,-0.33867 0,-0.13405 0.0635,-0.28222 l 1.68628,-4.05695 q 0.0847,-0.21166 0.32456,-0.21166 0.22577,0 0.3175,0.21166 l 1.68627,4.05695 q 0.0635,0.14817 0.0635,0.28222 0,0.1905 -0.11994,0.33161 -0.11994,0.14111 -0.33161,0.18345 l -0.60678,-1.47461 h -2.02494 z m 2.42711,-2.04612 -0.91017,-2.30716 -0.0564,0.0212 0.127,0.32456 -0.77611,1.96144 z"
         style="font-family:K2D;-inkscape-font-specification:K2D"
         id="path493" />
      <path
         d="m 175.46318,210.24082 q 0,-0.26812 0.16227,-0.41628 0.16934,-0.15522 0.46567,-0.15522 l 2.73756,4.16278 0.0494,-0.0423 -0.20461,-0.33866 v -3.78178 q 0.32455,0 0.48683,0.14111 0.16933,0.14111 0.16933,0.40922 v 3.99345 q 0,0.22577 -0.16228,0.37394 -0.15522,0.14817 -0.40216,0.14817 l -2.80106,-4.25451 -0.0494,0.0423 0.20461,0.33866 v 3.32317 q 0,0.26811 -0.16933,0.40923 -0.16228,0.14111 -0.48683,0.14111 z"
         style="font-family:K2D;-inkscape-font-specification:K2D"
         id="path495" />
      <path
         d="m 182.08129,214.73521 q -0.59267,0 -1.03011,-0.16934 -0.43039,-0.16933 -0.65617,-0.45155 -0.22578,-0.28222 -0.22578,-0.60678 0,-0.26811 0.14111,-0.40922 0.14111,-0.14817 0.43039,-0.14817 0,0.59972 0.35984,0.91722 0.35983,0.31045 1.00894,0.31045 0.62089,0 0.9525,-0.20461 0.33161,-0.21167 0.33161,-0.62089 0,-0.24695 -0.127,-0.40217 -0.11994,-0.16228 -0.41628,-0.27517 -0.28927,-0.11994 -0.83961,-0.23989 -0.64911,-0.14111 -1.03011,-0.32455 -0.381,-0.1905 -0.55739,-0.45861 -0.17639,-0.26811 -0.17639,-0.66323 0,-0.39511 0.21873,-0.69144 0.22577,-0.30339 0.635,-0.46567 0.40922,-0.16227 0.9525,-0.16227 0.51505,0 0.91722,0.14816 0.40922,0.14111 0.635,0.40922 0.23283,0.26106 0.23283,0.59267 0,0.20461 -0.13405,0.32456 -0.127,0.11289 -0.40217,0.11289 -0.0776,-0.53623 -0.381,-0.78317 -0.29633,-0.24695 -0.86783,-0.24695 -0.55034,0 -0.84667,0.19756 -0.29633,0.1905 -0.29633,0.54328 0,0.24694 0.10583,0.40922 0.11289,0.15522 0.37394,0.26811 0.26811,0.11289 0.74789,0.21872 0.71967,0.15523 1.12889,0.34573 0.41628,0.1905 0.59973,0.46566 0.18344,0.27517 0.18344,0.67734 0,0.64205 -0.53622,1.016 -0.53623,0.36689 -1.43228,0.36689 z"
         style="font-family:K2D;-inkscape-font-specification:K2D"
         id="path497" />
      <path
         d="m 184.86117,210.04326 q 0,-0.13406 0.0917,-0.21872 0.0988,-0.0917 0.24695,-0.0917 h 2.06022 q 0.46567,0 0.8255,0.19755 0.35984,0.1905 0.55739,0.54328 0.19756,0.34572 0.19756,0.79728 0,0.46566 -0.19756,0.81844 -0.1905,0.35278 -0.55033,0.54328 -0.35983,0.1905 -0.83256,0.1905 h -1.73567 v 1.36172 q 0,0.26811 -0.16933,0.40923 -0.16933,0.14111 -0.49389,0.14111 z m 2.39889,2.19428 q 0.42334,0 0.67028,-0.254 0.24695,-0.26106 0.24695,-0.71261 0,-0.43745 -0.254,-0.69145 -0.24695,-0.26105 -0.66323,-0.26105 h -1.73567 v 1.91911 z"
         style="font-family:K2D;-inkscape-font-specification:K2D"
         id="path499" />
      <path
         d="m 191.33113,214.73521 q -0.58561,0 -1.05128,-0.22578 -0.45861,-0.23283 -0.71967,-0.635 -0.26105,-0.40922 -0.26105,-0.90311 v -1.55223 q 0,-0.49389 0.26105,-0.889 0.26106,-0.40216 0.71967,-0.62794 0.46567,-0.23283 1.05128,-0.23283 0.59267,0 1.05128,0.23283 0.46567,0.22578 0.72672,0.62794 0.26106,0.39511 0.26106,0.889 v 1.55223 q 0,0.49389 -0.26106,0.90311 -0.26105,0.40217 -0.72672,0.635 -0.46567,0.22578 -1.05128,0.22578 z m 0,-0.57856 q 0.65617,0 1.02306,-0.32455 0.36689,-0.32456 0.36689,-0.86784 v -1.53105 q 0,-0.54328 -0.36689,-0.86078 -0.36689,-0.32456 -1.02306,-0.32456 -0.64911,0 -1.016,0.32456 -0.36689,0.3175 -0.36689,0.86078 v 1.53105 q 0,0.54328 0.36689,0.86784 0.36689,0.32455 1.016,0.32455 z"
         style="font-family:K2D;-inkscape-font-specification:K2D"
         id="path501" />
      <path
         d="m 194.18158,210.04326 q 0,-0.13406 0.0917,-0.21872 0.0988,-0.0917 0.24694,-0.0917 h 1.94734 q 0.68439,0 1.08655,0.40216 0.40923,0.39511 0.40923,1.05834 0,0.83255 -0.72673,1.17827 v 0.0212 q 0.3175,0.13406 0.48684,0.40922 0.16933,0.26812 0.16933,0.65617 v 0.72672 q 0,0.26811 -0.16933,0.40923 -0.16934,0.14111 -0.49389,0.14111 v -1.23473 q 0,-0.41627 -0.1905,-0.62794 -0.18345,-0.21872 -0.55034,-0.21872 h -1.651 v 1.53105 q 0,0.26811 -0.16933,0.40923 -0.16228,0.14111 -0.48683,0.14111 z m 2.26483,2.03906 q 0.38806,0 0.61383,-0.23989 0.23284,-0.23989 0.23284,-0.65617 0,-0.42333 -0.21872,-0.64911 -0.21873,-0.22578 -0.62795,-0.22578 h -1.60867 v 1.77095 z"
         style="font-family:K2D;-inkscape-font-specification:K2D"
         id="path503" />
      <path
         d="m 200.10825,210.31843 h -1.72156 q 0,-0.58561 0.55034,-0.58561 h 3.54894 q 0,0.58561 -0.55033,0.58561 h -1.16417 v 3.86644 q 0,0.26811 -0.16933,0.40923 -0.16934,0.14111 -0.49389,0.14111 z"
         style="font-family:K2D;-inkscape-font-specification:K2D"
         id="path505" />
    </g>
    <g
       aria-label="3.NETWORK"
       id="text8820"
       style="font-size:7.05556px;line-height:1.25;fill:#ffffff;stroke-width:0.264583">
      <path
         d="m 157.5491,233.17547 q -0.53623,0 -0.95956,-0.16933 -0.42333,-0.16934 -0.66322,-0.46567 -0.23989,-0.30339 -0.23989,-0.68439 0,-0.26811 0.15522,-0.38806 0.16228,-0.127 0.49389,-0.11994 -0.0141,0.19755 -0.0141,0.26105 0,0.47273 0.3175,0.72673 0.3175,0.24694 0.91017,0.24694 1.22766,0 1.22766,-0.83961 0,-0.41628 -0.28928,-0.635 -0.28927,-0.22578 -0.83961,-0.22578 h -0.24694 q -0.127,0 -0.21167,-0.0776 -0.0776,-0.0847 -0.0776,-0.21167 0,-0.13405 0.0776,-0.21166 0.0847,-0.0776 0.21167,-0.0776 h 0.254 q 0.45155,0 0.71261,-0.21873 0.26811,-0.22577 0.26811,-0.59972 0,-0.38805 -0.26811,-0.58561 -0.26106,-0.19756 -0.77611,-0.19756 -0.55034,0 -0.84667,0.19756 -0.28928,0.1905 -0.28928,0.55739 0,0.14817 0.0282,0.254 -0.29634,0.0141 -0.47978,-0.11289 -0.18345,-0.127 -0.18345,-0.35278 0,-0.32455 0.22578,-0.57855 0.23283,-0.26106 0.635,-0.40923 0.40217,-0.14816 0.91017,-0.14816 0.51505,0 0.90311,0.16933 0.39511,0.16933 0.60678,0.47978 0.21167,0.31044 0.21167,0.72672 0,0.72672 -0.76906,1.10067 0.47272,0.1905 0.68439,0.46567 0.21872,0.27516 0.21872,0.69144 0,0.66322 -0.508,1.05128 -0.508,0.381 -1.38994,0.381 z"
         style="font-family:K2D;-inkscape-font-specification:K2D"
         id="path466" />
      <path
         d="m 160.5477,233.17547 q -0.19755,0 -0.33161,-0.127 -0.13405,-0.13406 -0.13405,-0.33161 0,-0.19756 0.13405,-0.33161 0.13406,-0.13406 0.33161,-0.13406 0.1905,0 0.33161,0.14111 0.14112,0.13406 0.14112,0.32456 0,0.1905 -0.14112,0.32455 -0.14111,0.13406 -0.33161,0.13406 z"
         style="font-family:K2D;-inkscape-font-specification:K2D"
         id="path468" />
      <path
         d="m 161.83181,228.68108 q 0,-0.26811 0.16228,-0.41628 0.16933,-0.15522 0.46567,-0.15522 l 2.73755,4.16278 0.0494,-0.0423 -0.20461,-0.33866 v -3.78178 q 0.32456,0 0.48683,0.14111 0.16934,0.14111 0.16934,0.40922 v 3.99345 q 0,0.22578 -0.16228,0.37394 -0.15522,0.14817 -0.40217,0.14817 l -2.80105,-4.2545 -0.0494,0.0423 0.20461,0.33867 v 3.32317 q 0,0.26811 -0.16934,0.40922 -0.16227,0.14111 -0.48683,0.14111 z"
         style="font-family:K2D;-inkscape-font-specification:K2D"
         id="path470" />
      <path
         d="m 166.68603,228.48352 q 0,-0.13405 0.0988,-0.21872 0.0988,-0.0917 0.23989,-0.0917 h 3.12561 q 0,0.29633 -0.11994,0.43744 -0.11994,0.14111 -0.37394,0.14111 h -2.30717 v 1.58045 h 1.97555 q 0,0.29633 -0.11994,0.43744 -0.11995,0.14111 -0.36689,0.14111 h -1.48872 v 1.62278 h 2.45533 q 0.24695,0 0.36689,0.14111 0.11995,0.14112 0.11995,0.43745 h -3.26673 q -0.14111,0 -0.23989,-0.0847 -0.0988,-0.0917 -0.0988,-0.22578 z"
         style="font-family:K2D;-inkscape-font-specification:K2D"
         id="path472" />
      <path
         d="m 172.57742,228.75869 h -1.72155 q 0,-0.58561 0.55033,-0.58561 h 3.54895 q 0,0.58561 -0.55034,0.58561 h -1.16416 v 3.86645 q 0,0.26811 -0.16934,0.40922 -0.16933,0.14111 -0.49389,0.14111 z"
         style="font-family:K2D;-inkscape-font-specification:K2D"
         id="path474" />
      <path
         d="m 177.14238,233.17547 q -0.254,0 -0.41628,-0.11995 -0.16227,-0.127 -0.21872,-0.35277 l -1.16417,-4.52967 q 0.10584,-0.0635 0.26811,-0.0635 0.20462,0 0.34573,0.10583 0.14111,0.0988 0.18344,0.27517 l 0.76906,3.34433 -0.11289,0.41628 0.0423,0.0141 1.13595,-3.937 q 0.0282,-0.10583 0.10583,-0.16228 0.0847,-0.0564 0.19756,-0.0564 0.10583,0 0.1905,0.0564 0.0847,0.0564 0.11289,0.16228 l 0.98072,3.53483 -0.0988,0.43039 0.0423,0.0141 0.91017,-3.81706 q 0.0423,-0.17639 0.17639,-0.27517 0.14111,-0.10583 0.33867,-0.10583 0.16227,0 0.28222,0.0635 l -1.16417,4.52967 q -0.0564,0.22577 -0.22578,0.35277 -0.16227,0.11995 -0.41627,0.11995 l -1.2065,-4.26861 -0.0423,0.0141 0.0917,0.33161 z"
         style="font-family:K2D;-inkscape-font-specification:K2D"
         id="path476" />
      <path
         d="m 183.56295,233.17547 q -0.58562,0 -1.05128,-0.22578 -0.45861,-0.23283 -0.71967,-0.635 -0.26106,-0.40922 -0.26106,-0.90311 v -1.55222 q 0,-0.49389 0.26106,-0.889 0.26106,-0.40217 0.71967,-0.62795 0.46566,-0.23283 1.05128,-0.23283 0.59266,0 1.05127,0.23283 0.46567,0.22578 0.72673,0.62795 0.26105,0.39511 0.26105,0.889 v 1.55222 q 0,0.49389 -0.26105,0.90311 -0.26106,0.40217 -0.72673,0.635 -0.46566,0.22578 -1.05127,0.22578 z m 0,-0.57856 q 0.65616,0 1.02305,-0.32455 0.36689,-0.32456 0.36689,-0.86784 v -1.53105 q 0,-0.54328 -0.36689,-0.86078 -0.36689,-0.32456 -1.02305,-0.32456 -0.64912,0 -1.01601,0.32456 -0.36688,0.3175 -0.36688,0.86078 v 1.53105 q 0,0.54328 0.36688,0.86784 0.36689,0.32455 1.01601,0.32455 z"
         style="font-family:K2D;-inkscape-font-specification:K2D"
         id="path478" />
      <path
         d="m 186.41339,228.48352 q 0,-0.13405 0.0917,-0.21872 0.0988,-0.0917 0.24695,-0.0917 h 1.94733 q 0.68439,0 1.08656,0.40216 0.40922,0.39512 0.40922,1.05834 0,0.83255 -0.72672,1.17828 v 0.0212 q 0.3175,0.13406 0.48683,0.40923 0.16933,0.26811 0.16933,0.65616 v 0.72673 q 0,0.26811 -0.16933,0.40922 -0.16933,0.14111 -0.49389,0.14111 v -1.23472 q 0,-0.41628 -0.1905,-0.62795 -0.18344,-0.21872 -0.55033,-0.21872 h -1.651 v 1.53106 q 0,0.26811 -0.16934,0.40922 -0.16227,0.14111 -0.48683,0.14111 z m 2.26483,2.03906 q 0.38806,0 0.61384,-0.23989 0.23283,-0.23989 0.23283,-0.65617 0,-0.42333 -0.21872,-0.64911 -0.21872,-0.22578 -0.62795,-0.22578 h -1.60866 v 1.77095 z"
         style="font-family:K2D;-inkscape-font-specification:K2D"
         id="path480" />
      <path
         d="m 191.1124,228.65991 q 0,-0.26106 0.17639,-0.40217 0.17638,-0.14816 0.48683,-0.14816 v 2.42005 l 2.57528,-2.42005 q 0.11994,0.0988 0.19755,0.21166 0.0776,0.10584 0.0776,0.1905 0,0.17639 -0.21167,0.37395 l -1.651,1.55222 2.13078,2.55411 q -0.0776,0.0847 -0.18345,0.13406 -0.0988,0.0494 -0.19755,0.0494 -0.27517,0 -0.4445,-0.19756 l -1.78506,-2.11666 -0.508,0.47272 v 1.31233 q 0,0.26811 -0.16228,0.40217 -0.16228,0.127 -0.50094,0.127 z"
         style="font-family:K2D;-inkscape-font-specification:K2D"
         id="path482" />
    </g>
    <g
       aria-label="2.DATA-LINK"
       id="text8824"
       style="font-size:7.05556px;line-height:1.25;fill:#ffffff;stroke-width:0.264583">
      <path
         d="m 155.98982,248.59135 q -0.14111,0 -0.22578,-0.0776 -0.0776,-0.0776 -0.0776,-0.21166 0,-0.54328 0.41628,-1.016 0.41627,-0.47273 1.30527,-0.93839 0.508,-0.26812 0.76906,-0.45862 0.26811,-0.19755 0.36689,-0.38805 0.10583,-0.19756 0.10583,-0.46567 0,-0.41628 -0.27516,-0.635 -0.26812,-0.21872 -0.79023,-0.21872 -0.56444,0 -0.88194,0.26811 -0.31045,0.26811 -0.31045,0.74789 0,0.127 0.0212,0.26811 l -0.0847,0.007 q -0.254,0 -0.43039,-0.14817 -0.17638,-0.14817 -0.17638,-0.36689 0,-0.381 0.24694,-0.69144 0.24694,-0.3175 0.67028,-0.49389 0.43039,-0.18345 0.94544,-0.18345 0.52917,0 0.92428,0.17639 0.39511,0.17639 0.60678,0.508 0.21167,0.32456 0.21167,0.762 0,0.50095 -0.36689,0.90311 -0.35984,0.40217 -1.22061,0.85373 -1.24884,0.66322 -1.31939,1.22061 h 2.42005 q 0.26811,0 0.40923,0.14817 0.14111,0.14816 0.14111,0.43038 z"
         style="font-family:K2D;-inkscape-font-specification:K2D"
         id="path443" />
      <path
         d="m 160.49126,248.65485 q -0.19755,0 -0.33161,-0.127 -0.13405,-0.13405 -0.13405,-0.33161 0,-0.19755 0.13405,-0.33161 0.13406,-0.13405 0.33161,-0.13405 0.1905,0 0.33161,0.14111 0.14111,0.13405 0.14111,0.32455 0,0.1905 -0.14111,0.32456 -0.14111,0.13405 -0.33161,0.13405 z"
         style="font-family:K2D;-inkscape-font-specification:K2D"
         id="path445" />
      <path
         d="m 162.11404,248.59135 q -0.14111,0 -0.23989,-0.0847 -0.0988,-0.0917 -0.0988,-0.22578 v -4.318 q 0,-0.13406 0.0917,-0.21873 0.0988,-0.0917 0.24695,-0.0917 h 1.651 q 0.59972,0 1.05833,0.22578 0.45861,0.22578 0.71261,0.635 0.26106,0.40217 0.26106,0.92428 v 1.35467 q 0,0.52211 -0.26106,0.93133 -0.254,0.40922 -0.71966,0.64206 -0.45861,0.22577 -1.05128,0.22577 z m 1.58044,-0.57855 q 0.67734,0 1.05834,-0.3175 0.381,-0.32456 0.381,-0.89606 v -1.36878 q 0,-0.56444 -0.381,-0.88194 -0.381,-0.3175 -1.05834,-0.3175 h -1.25589 v 3.78178 z"
         style="font-family:K2D;-inkscape-font-specification:K2D"
         id="path447" />
      <path
         d="m 166.74249,248.65485 q -0.21166,-0.0423 -0.33161,-0.17638 -0.11994,-0.14112 -0.11994,-0.33867 0,-0.13406 0.0635,-0.28222 l 1.68628,-4.05695 q 0.0847,-0.21167 0.32455,-0.21167 0.22578,0 0.3175,0.21167 l 1.68628,4.05695 q 0.0635,0.14816 0.0635,0.28222 0,0.1905 -0.11994,0.33161 -0.11995,0.14111 -0.33162,0.18344 l -0.60677,-1.47461 h -2.02495 z m 2.42712,-2.04611 -0.91017,-2.30717 -0.0565,0.0212 0.127,0.32456 -0.77611,1.96144 z"
         style="font-family:K2D;-inkscape-font-specification:K2D"
         id="path449" />
      <path
         d="m 171.97772,244.23807 h -1.72156 q 0,-0.58561 0.55034,-0.58561 h 3.54895 q 0,0.58561 -0.55034,0.58561 h -1.16417 v 3.86645 q 0,0.26811 -0.16933,0.40922 -0.16933,0.14111 -0.49389,0.14111 z"
         style="font-family:K2D;-inkscape-font-specification:K2D"
         id="path451" />
      <path
         d="m 174.63062,248.65485 q -0.21166,-0.0423 -0.33161,-0.17638 -0.11994,-0.14112 -0.11994,-0.33867 0,-0.13406 0.0635,-0.28222 l 1.68628,-4.05695 q 0.0847,-0.21167 0.32455,-0.21167 0.22578,0 0.3175,0.21167 l 1.68628,4.05695 q 0.0635,0.14816 0.0635,0.28222 0,0.1905 -0.11994,0.33161 -0.11995,0.14111 -0.33162,0.18344 l -0.60677,-1.47461 h -2.02495 z m 2.42712,-2.04611 -0.91017,-2.30717 -0.0565,0.0212 0.127,0.32456 -0.77611,1.96144 z"
         style="font-family:K2D;-inkscape-font-specification:K2D"
         id="path453" />
      <path
         d="m 178.95568,246.81335 q 0,-0.26105 0.127,-0.40922 0.127,-0.14817 0.35983,-0.14817 h 2.08139 q 0,0.26106 -0.127,0.40923 -0.127,0.14816 -0.36689,0.14816 z"
         style="font-family:K2D;-inkscape-font-specification:K2D"
         id="path455" />
      <path
         d="m 182.68102,248.59135 q -0.14111,0 -0.24695,-0.0988 -0.0988,-0.10584 -0.0988,-0.24695 v -4.10633 q 0,-0.55034 0.66322,-0.55034 v 4.41678 h 2.16606 q 0.24694,0 0.381,0.15523 0.13405,0.14816 0.13405,0.43038 z"
         style="font-family:K2D;-inkscape-font-specification:K2D"
         id="path457" />
      <path
         d="m 186.56158,244.1393 q 0,-0.26106 0.16933,-0.40217 0.17639,-0.14817 0.49389,-0.14817 v 4.51556 q 0,0.26106 -0.17639,0.40922 -0.16933,0.14111 -0.48683,0.14111 z"
         style="font-family:K2D;-inkscape-font-specification:K2D"
         id="path459" />
      <path
         d="m 188.3537,244.16046 q 0,-0.26811 0.16227,-0.41628 0.16934,-0.15522 0.46567,-0.15522 l 2.73756,4.16278 0.0494,-0.0423 -0.20461,-0.33867 v -3.78178 q 0.32455,0 0.48683,0.14111 0.16933,0.14111 0.16933,0.40923 v 3.99344 q 0,0.22578 -0.16228,0.37395 -0.15522,0.14816 -0.40216,0.14816 l -2.80106,-4.2545 -0.0494,0.0423 0.20461,0.33866 v 3.32317 q 0,0.26811 -0.16933,0.40922 -0.16228,0.14111 -0.48683,0.14111 z"
         style="font-family:K2D;-inkscape-font-specification:K2D"
         id="path461" />
      <path
         d="m 193.20792,244.1393 q 0,-0.26106 0.17639,-0.40217 0.17638,-0.14817 0.48683,-0.14817 v 2.42006 l 2.57528,-2.42006 q 0.11994,0.0988 0.19755,0.21167 0.0776,0.10583 0.0776,0.1905 0,0.17639 -0.21167,0.37394 l -1.651,1.55223 2.13078,2.55411 q -0.0776,0.0847 -0.18345,0.13406 -0.0988,0.0494 -0.19755,0.0494 -0.27517,0 -0.4445,-0.19755 l -1.78506,-2.11667 -0.508,0.47272 v 1.31234 q 0,0.26811 -0.16228,0.40216 -0.16228,0.127 -0.50094,0.127 z"
         style="font-family:K2D;-inkscape-font-specification:K2D"
         id="path463" />
    </g>
    <path
       id="rect12386"
       style="fill:none;stroke:#05a0e3;stroke-width:0.5;stroke-linecap:round;stroke-linejoin:round;paint-order:stroke fill markers"
       d="m 152.3242,256.11945 h 149.37852 c 1.28031,0 2.31103,1.03072 2.31103,2.31103 v 11.19341 c 0,1.28031 -1.03072,2.31103 -2.31103,2.31103 H 152.3242 c -1.28031,0 -2.31103,-1.03072 -2.31103,-2.31103 v -11.19341 c 0,-1.28031 1.03072,-2.31103 2.31103,-2.31103 z" />
    <path
       id="rect12388"
       style="fill:url(#linearGradient14794);stroke:#000000;stroke-width:0.2;stroke-linecap:round;stroke-linejoin:round;paint-order:stroke fill markers"
       d="m 154.15871,258.15863 h 62.42525 c 1.108,0 2,0.892 2,2 v 7.73712 c 0,1.108 -0.892,2 -2,2 h -62.42525 c -1.108,0 -2,-0.892 -2,-2 v -7.73712 c 0,-1.108 0.892,-2 2,-2 z" />
    <g
       aria-label="1.PHYSICAL"
       id="text12392"
       style="font-size:7.05556px;line-height:1.25;fill:#ffffff;stroke-width:0.264583">
      <path
         d="m 156.53309,262.13631 h -0.41627 q -0.23989,0 -0.37395,-0.15523 -0.127,-0.15522 -0.127,-0.42333 h 1.27 q 0.13406,0 0.21872,0.0917 0.0917,0.0847 0.0917,0.20461 v 4.15573 q 0,0.26811 -0.16934,0.40922 -0.16933,0.14111 -0.49389,0.14111 z"
         style="font-family:K2D;-inkscape-font-specification:K2D"
         id="path420" />
      <path
         d="m 158.47338,266.56014 q -0.19756,0 -0.33161,-0.127 -0.13406,-0.13405 -0.13406,-0.33161 0,-0.19755 0.13406,-0.33161 0.13405,-0.13406 0.33161,-0.13406 0.1905,0 0.33161,0.14112 0.14111,0.13405 0.14111,0.32455 0,0.1905 -0.14111,0.32456 -0.14111,0.13405 -0.33161,0.13405 z"
         style="font-family:K2D;-inkscape-font-specification:K2D"
         id="path422" />
      <path
         d="m 159.75749,261.8682 q 0,-0.13406 0.0917,-0.21873 0.0988,-0.0917 0.24694,-0.0917 h 2.06023 q 0.46566,0 0.8255,0.19756 0.35983,0.1905 0.55739,0.54327 0.19755,0.34573 0.19755,0.79728 0,0.46567 -0.19755,0.81845 -0.1905,0.35278 -0.55034,0.54328 -0.35983,0.1905 -0.83255,0.1905 h -1.73567 v 1.36172 q 0,0.26811 -0.16934,0.40922 -0.16933,0.14111 -0.49388,0.14111 z m 2.39889,2.19427 q 0.42333,0 0.67027,-0.254 0.24695,-0.26105 0.24695,-0.71261 0,-0.43744 -0.254,-0.69144 -0.24695,-0.26106 -0.66322,-0.26106 h -1.73567 v 1.91911 z"
         style="font-family:K2D;-inkscape-font-specification:K2D"
         id="path424" />
      <path
         d="m 164.54822,262.04458 q 0,-0.26811 0.16933,-0.40922 0.16933,-0.14111 0.49389,-0.14111 v 2.2225 h 2.50472 v -1.67217 q 0,-0.26811 0.16934,-0.40922 0.16933,-0.14111 0.49389,-0.14111 v 4.51556 q 0,0.26811 -0.16934,0.40922 -0.16933,0.14111 -0.49389,0.14111 v -2.25778 h -2.50472 v 1.70745 q 0,0.26811 -0.16933,0.40922 -0.16934,0.14111 -0.49389,0.14111 z"
         style="font-family:K2D;-inkscape-font-specification:K2D"
         id="path426" />
      <path
         d="m 170.77123,264.70453 -1.75684,-3.12561 q 0.0494,-0.0353 0.14817,-0.0564 0.10583,-0.0282 0.19756,-0.0282 0.35983,0 0.51505,0.30339 l 1.2065,2.26483 -0.14816,0.29634 0.0494,0.0282 1.34055,-2.58939 q 0.16228,-0.30339 0.52211,-0.30339 0.0917,0 0.1905,0.0282 0.10584,0.0212 0.15523,0.0564 l -1.75684,3.12561 v 1.30528 q 0,0.26811 -0.16933,0.40922 -0.16934,0.14111 -0.49389,0.14111 z"
         style="font-family:K2D;-inkscape-font-specification:K2D"
         id="path428" />
      <path
         d="m 175.3785,266.56014 q -0.59267,0 -1.03011,-0.16933 -0.43039,-0.16933 -0.65617,-0.45156 -0.22578,-0.28222 -0.22578,-0.60677 0,-0.26812 0.14112,-0.40923 0.14111,-0.14816 0.43038,-0.14816 0,0.59972 0.35984,0.91722 0.35983,0.31044 1.00894,0.31044 0.62089,0 0.9525,-0.20461 0.33162,-0.21166 0.33162,-0.62089 0,-0.24694 -0.127,-0.40216 -0.11995,-0.16228 -0.41628,-0.27517 -0.28928,-0.11994 -0.83961,-0.23989 -0.64912,-0.14111 -1.03012,-0.32456 -0.381,-0.1905 -0.55739,-0.45861 -0.17638,-0.26811 -0.17638,-0.66322 0,-0.39511 0.21872,-0.69144 0.22578,-0.30339 0.635,-0.46567 0.40922,-0.16228 0.9525,-0.16228 0.51505,0 0.91722,0.14817 0.40922,0.14111 0.635,0.40922 0.23284,0.26106 0.23284,0.59267 0,0.20461 -0.13406,0.32455 -0.127,0.11289 -0.40217,0.11289 -0.0776,-0.53622 -0.381,-0.78317 -0.29633,-0.24694 -0.86783,-0.24694 -0.55033,0 -0.84667,0.19756 -0.29633,0.1905 -0.29633,0.54327 0,0.24695 0.10583,0.40923 0.11289,0.15522 0.37395,0.26811 0.26811,0.11289 0.74789,0.21872 0.71966,0.15522 1.12889,0.34572 0.41627,0.1905 0.59972,0.46567 0.18344,0.27517 0.18344,0.67733 0,0.64206 -0.53622,1.016 -0.53622,0.36689 -1.43228,0.36689 z"
         style="font-family:K2D;-inkscape-font-specification:K2D"
         id="path430" />
      <path
         d="m 178.2995,262.04458 q 0,-0.26105 0.16933,-0.40216 0.17639,-0.14817 0.49389,-0.14817 v 4.51556 q 0,0.26106 -0.17639,0.40922 -0.16933,0.14111 -0.48683,0.14111 z"
         style="font-family:K2D;-inkscape-font-specification:K2D"
         id="path432" />
      <path
         d="m 182.06011,266.56014 q -0.59267,0 -1.05833,-0.21872 -0.46567,-0.22578 -0.72673,-0.62089 -0.254,-0.40217 -0.254,-0.91017 v -1.58044 q 0,-0.508 0.254,-0.90311 0.26106,-0.39511 0.71967,-0.61384 0.45861,-0.21872 1.05128,-0.21872 0.59267,0 1.05128,0.1905 0.45861,0.18345 0.71261,0.51506 0.26106,0.33161 0.26106,0.762 0,0.21166 -0.14111,0.33161 -0.14112,0.11994 -0.37395,0.11994 -0.0494,0 -0.14817,-0.0141 0.0141,-0.0847 0.0141,-0.26811 0,-0.30339 -0.17638,-0.54328 -0.16934,-0.23989 -0.48684,-0.37394 -0.31044,-0.13406 -0.71261,-0.13406 -0.39511,0 -0.70556,0.14817 -0.31044,0.14111 -0.48683,0.40922 -0.16933,0.26106 -0.16933,0.59267 v 1.58044 q 0,0.33867 0.16933,0.60678 0.17639,0.26106 0.48683,0.40922 0.3175,0.14817 0.71967,0.14817 0.40922,0 0.72672,-0.13405 0.3175,-0.13406 0.49389,-0.36689 0.17639,-0.23989 0.17639,-0.55034 0,-0.11289 -0.0141,-0.26811 0.0988,-0.0141 0.14111,-0.0141 0.23284,0 0.37395,0.13406 0.14816,0.13405 0.14816,0.35983 0,0.41628 -0.26105,0.74083 -0.26106,0.32456 -0.72672,0.508 -0.45862,0.17639 -1.05834,0.17639 z"
         style="font-family:K2D;-inkscape-font-specification:K2D"
         id="path434" />
      <path
         d="m 185.19278,266.56014 q -0.21167,-0.0423 -0.33161,-0.17639 -0.11995,-0.14111 -0.11995,-0.33866 0,-0.13406 0.0635,-0.28223 l 1.68628,-4.05694 q 0.0847,-0.21167 0.32456,-0.21167 0.22578,0 0.3175,0.21167 l 1.68628,4.05694 q 0.0635,0.14817 0.0635,0.28223 0,0.1905 -0.11995,0.33161 -0.11994,0.14111 -0.33161,0.18344 l -0.60678,-1.47461 h -2.02494 z m 2.42711,-2.04611 -0.91017,-2.30717 -0.0564,0.0212 0.127,0.32455 -0.77611,1.96145 z"
         style="font-family:K2D;-inkscape-font-specification:K2D"
         id="path436" />
      <path
         d="m 190.03995,266.49664 q -0.14111,0 -0.24694,-0.0988 -0.0988,-0.10584 -0.0988,-0.24695 v -4.10634 q 0,-0.55033 0.66322,-0.55033 v 4.41678 h 2.16606 q 0.24694,0 0.381,0.15522 0.13405,0.14817 0.13405,0.43039 z"
         style="font-family:K2D;-inkscape-font-specification:K2D"
         id="path438" />
    </g>
    <g
       aria-label="SERVICE LAYER"
       id="text51589"
       style="font-size:7.05556px;line-height:1.25;fill:#ffffff;stroke-width:0.264583">
      <path
         d="m 226.81619,173.31644 q -0.59267,0 -1.03011,-0.16933 -0.43039,-0.16933 -0.65617,-0.45155 -0.22578,-0.28223 -0.22578,-0.60678 0,-0.26811 0.14111,-0.40922 0.14112,-0.14817 0.43039,-0.14817 0,0.59972 0.35984,0.91722 0.35983,0.31045 1.00894,0.31045 0.62089,0 0.9525,-0.20462 0.33161,-0.21166 0.33161,-0.62088 0,-0.24695 -0.127,-0.40217 -0.11994,-0.16228 -0.41627,-0.27517 -0.28928,-0.11994 -0.83962,-0.23989 -0.64911,-0.14111 -1.03011,-0.32455 -0.381,-0.1905 -0.55739,-0.45861 -0.17639,-0.26812 -0.17639,-0.66323 0,-0.39511 0.21873,-0.69144 0.22577,-0.30339 0.635,-0.46567 0.40922,-0.16228 0.9525,-0.16228 0.51505,0 0.91722,0.14817 0.40922,0.14111 0.635,0.40922 0.23283,0.26106 0.23283,0.59267 0,0.20461 -0.13405,0.32455 -0.127,0.11289 -0.40217,0.11289 -0.0776,-0.53622 -0.381,-0.78316 -0.29633,-0.24695 -0.86783,-0.24695 -0.55034,0 -0.84667,0.19756 -0.29633,0.1905 -0.29633,0.54328 0,0.24694 0.10583,0.40922 0.11289,0.15522 0.37394,0.26811 0.26812,0.11289 0.74789,0.21872 0.71967,0.15522 1.12889,0.34572 0.41628,0.1905 0.59973,0.46567 0.18344,0.27517 0.18344,0.67734 0,0.64205 -0.53622,1.016 -0.53622,0.36688 -1.43228,0.36688 z"
         style="font-family:K2D;-inkscape-font-specification:K2D;fill:#000000"
         id="path395" />
      <path
         d="m 229.59607,168.6245 q 0,-0.13406 0.0988,-0.21872 0.0988,-0.0917 0.23989,-0.0917 h 3.12561 q 0,0.29634 -0.11994,0.43745 -0.11995,0.14111 -0.37395,0.14111 h -2.30716 v 1.58044 h 1.97555 q 0,0.29634 -0.11994,0.43745 -0.11995,0.14111 -0.36689,0.14111 h -1.48872 v 1.62278 h 2.45533 q 0.24695,0 0.36689,0.14111 0.11995,0.14111 0.11995,0.43744 h -3.26673 q -0.14111,0 -0.23989,-0.0847 -0.0988,-0.0917 -0.0988,-0.22578 z"
         style="font-family:K2D;-inkscape-font-specification:K2D;fill:#000000"
         id="path397" />
      <path
         d="m 234.01285,168.6245 q 0,-0.13406 0.0917,-0.21872 0.0988,-0.0917 0.24695,-0.0917 h 1.94733 q 0.68439,0 1.08656,0.40217 0.40922,0.39511 0.40922,1.05833 0,0.83256 -0.72672,1.17828 v 0.0212 q 0.3175,0.13405 0.48683,0.40922 0.16933,0.26811 0.16933,0.65617 v 0.72672 q 0,0.26811 -0.16933,0.40922 -0.16933,0.14111 -0.49389,0.14111 v -1.23472 q 0,-0.41628 -0.1905,-0.62794 -0.18344,-0.21873 -0.55033,-0.21873 h -1.651 v 1.53106 q 0,0.26811 -0.16934,0.40922 -0.16227,0.14111 -0.48683,0.14111 z m 2.26483,2.03905 q 0.38806,0 0.61384,-0.23988 0.23283,-0.23989 0.23283,-0.65617 0,-0.42334 -0.21872,-0.64911 -0.21872,-0.22578 -0.62795,-0.22578 h -1.60866 v 1.77094 z"
         style="font-family:K2D;-inkscape-font-specification:K2D;fill:#000000"
         id="path399" />
      <path
         d="m 240.49692,173.31644 q -0.23284,0 -0.31751,-0.21166 l -1.82033,-4.79073 q 0.0564,-0.0282 0.13406,-0.0423 0.0776,-0.0212 0.14111,-0.0212 0.19755,0 0.33161,0.0988 0.14111,0.0917 0.20461,0.26106 l 1.29117,3.60539 -0.127,0.35983 0.0564,0.0212 1.43228,-3.98639 q 0.0635,-0.16934 0.20461,-0.26106 0.14111,-0.0988 0.33867,-0.0988 0.11994,0 0.27517,0.0635 l -1.82034,4.79073 q -0.0353,0.0988 -0.11994,0.15522 -0.0847,0.0564 -0.20461,0.0564 z"
         style="font-family:K2D;-inkscape-font-specification:K2D;fill:#000000"
         id="path401" />
      <path
         d="m 243.59431,168.80089 q 0,-0.26106 0.16933,-0.40217 0.17639,-0.14817 0.49389,-0.14817 v 4.51556 q 0,0.26106 -0.17639,0.40922 -0.16933,0.14111 -0.48683,0.14111 z"
         style="font-family:K2D;-inkscape-font-specification:K2D;fill:#000000"
         id="path403" />
      <path
         d="m 247.35492,173.31644 q -0.59266,0 -1.05833,-0.21872 -0.46567,-0.22578 -0.72672,-0.62089 -0.254,-0.40216 -0.254,-0.91016 v -1.58045 q 0,-0.508 0.254,-0.90311 0.26105,-0.39511 0.71967,-0.61383 0.45861,-0.21873 1.05127,-0.21873 0.59267,0 1.05128,0.1905 0.45861,0.18345 0.71261,0.51506 0.26106,0.33161 0.26106,0.762 0,0.21167 -0.14111,0.33161 -0.14111,0.11995 -0.37395,0.11995 -0.0494,0 -0.14816,-0.0141 0.0141,-0.0847 0.0141,-0.26811 0,-0.30339 -0.17639,-0.54328 -0.16933,-0.23988 -0.48683,-0.37394 -0.31045,-0.13406 -0.71262,-0.13406 -0.39511,0 -0.70555,0.14817 -0.31045,0.14111 -0.48684,0.40922 -0.16933,0.26106 -0.16933,0.59267 v 1.58045 q 0,0.33866 0.16933,0.60677 0.17639,0.26106 0.48684,0.40923 0.3175,0.14816 0.71966,0.14816 0.40923,0 0.72673,-0.13405 0.3175,-0.13406 0.49389,-0.36689 0.17639,-0.23989 0.17639,-0.55033 0,-0.11289 -0.0141,-0.26812 0.0988,-0.0141 0.14112,-0.0141 0.23283,0 0.37394,0.13406 0.14817,0.13405 0.14817,0.35983 0,0.41628 -0.26106,0.74084 -0.26105,0.32455 -0.72672,0.508 -0.45861,0.17638 -1.05834,0.17638 z"
         style="font-family:K2D;-inkscape-font-specification:K2D;fill:#000000"
         id="path405" />
      <path
         d="m 250.21243,168.6245 q 0,-0.13406 0.0988,-0.21872 0.0988,-0.0917 0.23989,-0.0917 h 3.12562 q 0,0.29634 -0.11995,0.43745 -0.11994,0.14111 -0.37394,0.14111 h -2.30717 v 1.58044 h 1.97556 q 0,0.29634 -0.11995,0.43745 -0.11994,0.14111 -0.36689,0.14111 h -1.48872 v 1.62278 h 2.45533 q 0.24695,0 0.36689,0.14111 0.11995,0.14111 0.11995,0.43744 h -3.26673 q -0.14111,0 -0.23989,-0.0847 -0.0988,-0.0917 -0.0988,-0.22578 z"
         style="font-family:K2D;-inkscape-font-specification:K2D;fill:#000000"
         id="path407" />
      <path
         d="m 256.79526,173.25294 q -0.14111,0 -0.24695,-0.0988 -0.0988,-0.10584 -0.0988,-0.24695 v -4.10633 q 0,-0.55034 0.66323,-0.55034 v 4.41678 h 2.16605 q 0.24695,0 0.381,0.15523 0.13406,0.14816 0.13406,0.43038 z"
         style="font-family:K2D;-inkscape-font-specification:K2D;fill:#000000"
         id="path409" />
      <path
         d="m 260.63349,173.31644 q -0.21167,-0.0423 -0.33162,-0.17638 -0.11994,-0.14112 -0.11994,-0.33867 0,-0.13406 0.0635,-0.28222 l 1.68628,-4.05695 q 0.0847,-0.21167 0.32455,-0.21167 0.22578,0 0.3175,0.21167 l 1.68628,4.05695 q 0.0635,0.14816 0.0635,0.28222 0,0.1905 -0.11994,0.33161 -0.11995,0.14111 -0.33161,0.18344 l -0.60678,-1.47461 h -2.02495 z m 2.42711,-2.04611 -0.91017,-2.30717 -0.0564,0.0212 0.127,0.32456 -0.77612,1.96144 z"
         style="font-family:K2D;-inkscape-font-specification:K2D;fill:#000000"
         id="path411" />
      <path
         d="m 265.97455,171.46083 -1.75683,-3.12561 q 0.0494,-0.0353 0.14816,-0.0564 0.10584,-0.0282 0.19756,-0.0282 0.35983,0 0.51505,0.30339 l 1.2065,2.26484 -0.14816,0.29633 0.0494,0.0282 1.34055,-2.58939 q 0.16228,-0.30339 0.52211,-0.30339 0.0917,0 0.1905,0.0282 0.10584,0.0212 0.15523,0.0564 l -1.75684,3.12561 v 1.30528 q 0,0.26811 -0.16933,0.40922 -0.16933,0.14111 -0.49389,0.14111 z"
         style="font-family:K2D;-inkscape-font-specification:K2D;fill:#000000"
         id="path413" />
      <path
         d="m 269.20599,168.6245 q 0,-0.13406 0.0988,-0.21872 0.0988,-0.0917 0.23989,-0.0917 h 3.12561 q 0,0.29634 -0.11994,0.43745 -0.11995,0.14111 -0.37395,0.14111 h -2.30717 v 1.58044 h 1.97556 q 0,0.29634 -0.11994,0.43745 -0.11995,0.14111 -0.36689,0.14111 h -1.48873 v 1.62278 h 2.45534 q 0.24694,0 0.36689,0.14111 0.11994,0.14111 0.11994,0.43744 h -3.26672 q -0.14111,0 -0.23989,-0.0847 -0.0988,-0.0917 -0.0988,-0.22578 z"
         style="font-family:K2D;-inkscape-font-specification:K2D;fill:#000000"
         id="path415" />
      <path
         d="m 273.62276,168.6245 q 0,-0.13406 0.0917,-0.21872 0.0988,-0.0917 0.24694,-0.0917 h 1.94734 q 0.68439,0 1.08655,0.40217 0.40923,0.39511 0.40923,1.05833 0,0.83256 -0.72673,1.17828 v 0.0212 q 0.3175,0.13405 0.48684,0.40922 0.16933,0.26811 0.16933,0.65617 v 0.72672 q 0,0.26811 -0.16933,0.40922 -0.16934,0.14111 -0.49389,0.14111 v -1.23472 q 0,-0.41628 -0.1905,-0.62794 -0.18345,-0.21873 -0.55034,-0.21873 h -1.651 v 1.53106 q 0,0.26811 -0.16933,0.40922 -0.16228,0.14111 -0.48684,0.14111 z m 2.26484,2.03905 q 0.38806,0 0.61383,-0.23988 0.23284,-0.23989 0.23284,-0.65617 0,-0.42334 -0.21873,-0.64911 -0.21872,-0.22578 -0.62794,-0.22578 h -1.60867 v 1.77094 z"
         style="font-family:K2D;-inkscape-font-specification:K2D;fill:#000000"
         id="path417" />
    </g>
    <g
       aria-label="MIDDLEWARE
LAYER"
       id="text56309"
       style="font-size:7.05556px;line-height:1.25;fill:#ffffff;stroke-width:0.264583">
      <path
         d="m 224.90414,198.00383 q 0,-0.26106 0.17639,-0.40217 0.17639,-0.14817 0.48683,-0.14817 l 1.70745,4.09929 -0.13406,0.33161 0.0494,0.0212 1.80622,-4.45206 q 0.31045,0 0.48684,0.14817 0.18344,0.14817 0.18344,0.40922 v 4.50851 q -0.65617,0 -0.65617,-0.54328 v -2.97039 l 0.18345,-0.48684 -0.0564,-0.0141 -1.57339,3.82412 q -0.0353,0.0847 -0.11289,0.13405 -0.0776,0.0564 -0.16227,0.0564 -0.0917,0 -0.16934,-0.0494 -0.0776,-0.0494 -0.11289,-0.14111 l -1.57339,-3.83117 -0.0564,0.0212 0.18344,0.47978 v 2.97745 q 0,0.26811 -0.16933,0.40922 -0.16228,0.13406 -0.48683,0.13406 z"
         style="font-family:K2D;-inkscape-font-specification:K2D;fill:#000000"
         id="path364" />
      <path
         d="m 230.79553,198.00383 q 0,-0.26106 0.16934,-0.40217 0.17639,-0.14817 0.49389,-0.14817 v 4.51556 q 0,0.26106 -0.17639,0.40923 -0.16934,0.14111 -0.48684,0.14111 z"
         style="font-family:K2D;-inkscape-font-specification:K2D;fill:#000000"
         id="path366" />
      <path
         d="m 232.92631,202.45589 q -0.14111,0 -0.23989,-0.0847 -0.0988,-0.0917 -0.0988,-0.22578 v -4.318 q 0,-0.13406 0.0917,-0.21872 0.0988,-0.0917 0.24694,-0.0917 h 1.651 q 0.59973,0 1.05834,0.22578 0.45861,0.22578 0.71261,0.635 0.26106,0.40217 0.26106,0.92428 v 1.35467 q 0,0.52211 -0.26106,0.93133 -0.254,0.40923 -0.71967,0.64206 -0.45861,0.22578 -1.05128,0.22578 z m 1.58045,-0.57856 q 0.67733,0 1.05833,-0.3175 0.381,-0.32456 0.381,-0.89606 V 199.295 q 0,-0.56445 -0.381,-0.88195 -0.381,-0.3175 -1.05833,-0.3175 h -1.25589 v 3.78178 z"
         style="font-family:K2D;-inkscape-font-specification:K2D;fill:#000000"
         id="path368" />
      <path
         d="m 237.86521,202.45589 q -0.14111,0 -0.23989,-0.0847 -0.0988,-0.0917 -0.0988,-0.22578 v -4.318 q 0,-0.13406 0.0917,-0.21872 0.0988,-0.0917 0.24694,-0.0917 h 1.651 q 0.59973,0 1.05834,0.22578 0.45861,0.22578 0.71261,0.635 0.26105,0.40217 0.26105,0.92428 v 1.35467 q 0,0.52211 -0.26105,0.93133 -0.254,0.40923 -0.71967,0.64206 -0.45861,0.22578 -1.05128,0.22578 z m 1.58045,-0.57856 q 0.67733,0 1.05833,-0.3175 0.381,-0.32456 0.381,-0.89606 V 199.295 q 0,-0.56445 -0.381,-0.88195 -0.381,-0.3175 -1.05833,-0.3175 h -1.25589 v 3.78178 z"
         style="font-family:K2D;-inkscape-font-specification:K2D;fill:#000000"
         id="path370" />
      <path
         d="m 242.81117,202.45589 q -0.14112,0 -0.24695,-0.0988 -0.0988,-0.10583 -0.0988,-0.24695 v -4.10633 q 0,-0.55034 0.66323,-0.55034 v 4.41679 h 2.16605 q 0.24695,0 0.381,0.15522 0.13406,0.14816 0.13406,0.43039 z"
         style="font-family:K2D;-inkscape-font-specification:K2D;fill:#000000"
         id="path372" />
      <path
         d="m 246.55061,197.82744 q 0,-0.13406 0.0988,-0.21872 0.0988,-0.0917 0.23989,-0.0917 h 3.12561 q 0,0.29634 -0.11994,0.43745 -0.11995,0.14111 -0.37395,0.14111 h -2.30716 v 1.58045 h 1.97555 q 0,0.29633 -0.11994,0.43744 -0.11995,0.14111 -0.36689,0.14111 h -1.48872 v 1.62278 h 2.45533 q 0.24695,0 0.36689,0.14111 0.11994,0.14111 0.11994,0.43745 h -3.26672 q -0.14111,0 -0.23989,-0.0847 -0.0988,-0.0917 -0.0988,-0.22578 z"
         style="font-family:K2D;-inkscape-font-specification:K2D;fill:#000000"
         id="path374" />
      <path
         d="m 252.41378,202.51939 q -0.254,0 -0.41627,-0.11995 -0.16228,-0.127 -0.21873,-0.35278 l -1.16416,-4.52967 q 0.10583,-0.0635 0.26811,-0.0635 0.20461,0 0.34572,0.10584 0.14111,0.0988 0.18344,0.27516 l 0.76906,3.34434 -0.11289,0.41628 0.0423,0.0141 1.13595,-3.937 q 0.0282,-0.10584 0.10583,-0.16228 0.0847,-0.0565 0.19756,-0.0565 0.10583,0 0.1905,0.0565 0.0847,0.0564 0.11289,0.16228 l 0.98072,3.53483 -0.0988,0.43039 0.0423,0.0141 0.91016,-3.81706 q 0.0423,-0.17638 0.17639,-0.27516 0.14111,-0.10584 0.33867,-0.10584 0.16228,0 0.28222,0.0635 l -1.16417,4.52967 q -0.0564,0.22578 -0.22577,0.35278 -0.16228,0.11995 -0.41628,0.11995 l -1.2065,-4.26862 -0.0423,0.0141 0.0917,0.33162 z"
         style="font-family:K2D;-inkscape-font-specification:K2D;fill:#000000"
         id="path376" />
      <path
         d="m 256.97169,202.51939 q -0.21167,-0.0423 -0.33161,-0.17639 -0.11995,-0.14111 -0.11995,-0.33867 0,-0.13405 0.0635,-0.28222 l 1.68628,-4.05695 q 0.0847,-0.21167 0.32456,-0.21167 0.22578,0 0.3175,0.21167 l 1.68628,4.05695 q 0.0635,0.14817 0.0635,0.28222 0,0.1905 -0.11995,0.33161 -0.11994,0.14111 -0.33161,0.18345 l -0.60678,-1.47462 h -2.02494 z m 2.42711,-2.04612 -0.91017,-2.30716 -0.0564,0.0212 0.127,0.32456 -0.77611,1.96144 z"
         style="font-family:K2D;-inkscape-font-specification:K2D;fill:#000000"
         id="path378" />
      <path
         d="m 261.47314,197.82744 q 0,-0.13406 0.0917,-0.21872 0.0988,-0.0917 0.24694,-0.0917 h 1.94734 q 0.68439,0 1.08655,0.40217 0.40923,0.39511 0.40923,1.05834 0,0.83255 -0.72673,1.17827 v 0.0212 q 0.3175,0.13406 0.48684,0.40922 0.16933,0.26811 0.16933,0.65617 v 0.72672 q 0,0.26811 -0.16933,0.40923 -0.16934,0.14111 -0.49389,0.14111 v -1.23473 q 0,-0.41627 -0.1905,-0.62794 -0.18345,-0.21872 -0.55033,-0.21872 h -1.65101 v 1.53105 q 0,0.26811 -0.16933,0.40923 -0.16228,0.14111 -0.48683,0.14111 z m 2.26483,2.03906 q 0.38806,0 0.61384,-0.23989 0.23283,-0.23989 0.23283,-0.65617 0,-0.42333 -0.21872,-0.64911 -0.21873,-0.22578 -0.62795,-0.22578 h -1.60867 v 1.77095 z"
         style="font-family:K2D;-inkscape-font-specification:K2D;fill:#000000"
         id="path380" />
      <path
         d="m 266.17214,197.82744 q 0,-0.13406 0.0988,-0.21872 0.0988,-0.0917 0.23989,-0.0917 h 3.12561 q 0,0.29634 -0.11994,0.43745 -0.11995,0.14111 -0.37395,0.14111 h -2.30716 v 1.58045 h 1.97555 q 0,0.29633 -0.11994,0.43744 -0.11995,0.14111 -0.36689,0.14111 h -1.48872 v 1.62278 h 2.45533 q 0.24694,0 0.36689,0.14111 0.11994,0.14111 0.11994,0.43745 h -3.26672 q -0.14111,0 -0.23989,-0.0847 -0.0988,-0.0917 -0.0988,-0.22578 z"
         style="font-family:K2D;-inkscape-font-specification:K2D;fill:#000000"
         id="path382" />
      <path
         d="m 225.24986,211.60263 q -0.14111,0 -0.24695,-0.0988 -0.0988,-0.10583 -0.0988,-0.24694 v -4.10634 q 0,-0.55033 0.66322,-0.55033 v 4.41678 h 2.16606 q 0.24694,0 0.381,0.15522 0.13405,0.14817 0.13405,0.43039 z"
         style="font-family:K2D;-inkscape-font-specification:K2D;fill:#000000"
         id="path384" />
      <path
         d="m 229.08809,211.66613 q -0.21167,-0.0423 -0.33161,-0.17639 -0.11995,-0.14111 -0.11995,-0.33866 0,-0.13406 0.0635,-0.28223 l 1.68628,-4.05694 q 0.0847,-0.21167 0.32456,-0.21167 0.22578,0 0.3175,0.21167 l 1.68628,4.05694 q 0.0635,0.14817 0.0635,0.28223 0,0.1905 -0.11995,0.33161 -0.11994,0.14111 -0.33161,0.18344 l -0.60678,-1.47461 h -2.02494 z m 2.42711,-2.04611 -0.91016,-2.30717 -0.0565,0.0212 0.127,0.32455 -0.77611,1.96145 z"
         style="font-family:K2D;-inkscape-font-specification:K2D;fill:#000000"
         id="path386" />
      <path
         d="m 234.42915,209.81052 -1.75683,-3.12561 q 0.0494,-0.0353 0.14816,-0.0565 0.10584,-0.0282 0.19756,-0.0282 0.35983,0 0.51506,0.30339 l 1.2065,2.26483 -0.14817,0.29634 0.0494,0.0282 1.34056,-2.58939 q 0.16227,-0.30339 0.52211,-0.30339 0.0917,0 0.1905,0.0282 0.10583,0.0212 0.15522,0.0565 l -1.75683,3.12561 v 1.30528 q 0,0.26811 -0.16934,0.40922 -0.16933,0.14111 -0.49389,0.14111 z"
         style="font-family:K2D;-inkscape-font-specification:K2D;fill:#000000"
         id="path388" />
      <path
         d="m 237.66059,206.97418 q 0,-0.13405 0.0988,-0.21872 0.0988,-0.0917 0.23989,-0.0917 h 3.12561 q 0,0.29633 -0.11994,0.43744 -0.11995,0.14112 -0.37395,0.14112 h -2.30716 v 1.58044 h 1.97555 q 0,0.29633 -0.11994,0.43745 -0.11995,0.14111 -0.36689,0.14111 h -1.48872 v 1.62278 h 2.45533 q 0.24695,0 0.36689,0.14111 0.11994,0.14111 0.11994,0.43744 h -3.26672 q -0.14111,0 -0.23989,-0.0847 -0.0988,-0.0917 -0.0988,-0.22578 z"
         style="font-family:K2D;-inkscape-font-specification:K2D;fill:#000000"
         id="path390" />
      <path
         d="m 242.07737,206.97418 q 0,-0.13405 0.0917,-0.21872 0.0988,-0.0917 0.24695,-0.0917 h 1.94733 q 0.68439,0 1.08656,0.40217 0.40922,0.39511 0.40922,1.05833 0,0.83256 -0.72672,1.17828 v 0.0212 q 0.3175,0.13405 0.48683,0.40922 0.16933,0.26811 0.16933,0.65617 v 0.72672 q 0,0.26811 -0.16933,0.40922 -0.16933,0.14111 -0.49389,0.14111 v -1.23472 q 0,-0.41628 -0.1905,-0.62795 -0.18344,-0.21872 -0.55033,-0.21872 h -1.651 v 1.53106 q 0,0.26811 -0.16934,0.40922 -0.16227,0.14111 -0.48683,0.14111 z m 2.26483,2.03906 q 0.38806,0 0.61384,-0.23989 0.23283,-0.23989 0.23283,-0.65616 0,-0.42334 -0.21872,-0.64912 -0.21872,-0.22577 -0.62795,-0.22577 h -1.60866 v 1.77094 z"
         style="font-family:K2D;-inkscape-font-specification:K2D;fill:#000000"
         id="path392" />
    </g>
    <g
       aria-label="OPERATING SYSTEM
LAYER"
       id="text56313"
       style="font-size:7.05556px;line-height:1.25;fill:#ffffff;stroke-width:0.264583">
      <path
         d="m 227.14848,236.43903 q -0.58561,0 -1.05128,-0.22577 -0.45861,-0.23284 -0.71966,-0.635 -0.26106,-0.40923 -0.26106,-0.90312 v -1.55222 q 0,-0.49389 0.26106,-0.889 0.26105,-0.40217 0.71966,-0.62794 0.46567,-0.23284 1.05128,-0.23284 0.59267,0 1.05128,0.23284 0.46567,0.22577 0.72672,0.62794 0.26106,0.39511 0.26106,0.889 v 1.55222 q 0,0.49389 -0.26106,0.90312 -0.26105,0.40216 -0.72672,0.635 -0.46567,0.22577 -1.05128,0.22577 z m 0,-0.57855 q 0.65617,0 1.02306,-0.32456 0.36689,-0.32455 0.36689,-0.86783 v -1.53106 q 0,-0.54328 -0.36689,-0.86078 -0.36689,-0.32455 -1.02306,-0.32455 -0.64911,0 -1.016,0.32455 -0.36689,0.3175 -0.36689,0.86078 v 1.53106 q 0,0.54328 0.36689,0.86783 0.36689,0.32456 1.016,0.32456 z"
         style="font-family:K2D;-inkscape-font-specification:K2D;fill:#000000"
         id="path323" />
      <path
         d="m 229.99893,231.74709 q 0,-0.13406 0.0917,-0.21873 0.0988,-0.0917 0.24694,-0.0917 h 2.06023 q 0.46566,0 0.8255,0.19756 0.35983,0.1905 0.55739,0.54328 0.19755,0.34572 0.19755,0.79727 0,0.46567 -0.19755,0.81845 -0.1905,0.35278 -0.55034,0.54328 -0.35983,0.1905 -0.83255,0.1905 h -1.73567 v 1.36172 q 0,0.26811 -0.16933,0.40922 -0.16934,0.14111 -0.49389,0.14111 z m 2.39889,2.19428 q 0.42333,0 0.67028,-0.254 0.24694,-0.26106 0.24694,-0.71262 0,-0.43744 -0.254,-0.69144 -0.24694,-0.26106 -0.66322,-0.26106 h -1.73567 v 1.91912 z"
         style="font-family:K2D;-inkscape-font-specification:K2D;fill:#000000"
         id="path325" />
      <path
         d="m 234.78966,231.74709 q 0,-0.13406 0.0988,-0.21873 0.0988,-0.0917 0.23988,-0.0917 h 3.12562 q 0,0.29634 -0.11995,0.43745 -0.11994,0.14111 -0.37394,0.14111 h -2.30717 v 1.58044 h 1.97556 q 0,0.29634 -0.11995,0.43745 -0.11994,0.14111 -0.36689,0.14111 h -1.48872 v 1.62278 h 2.45534 q 0.24694,0 0.36688,0.14111 0.11995,0.14111 0.11995,0.43744 h -3.26673 q -0.14111,0 -0.23988,-0.0847 -0.0988,-0.0917 -0.0988,-0.22578 z"
         style="font-family:K2D;-inkscape-font-specification:K2D;fill:#000000"
         id="path327" />
      <path
         d="m 239.20643,231.74709 q 0,-0.13406 0.0917,-0.21873 0.0988,-0.0917 0.24694,-0.0917 h 1.94734 q 0.68439,0 1.08655,0.40217 0.40922,0.39511 0.40922,1.05833 0,0.83256 -0.72672,1.17828 v 0.0212 q 0.3175,0.13405 0.48684,0.40922 0.16933,0.26811 0.16933,0.65617 v 0.72672 q 0,0.26811 -0.16933,0.40922 -0.16934,0.14111 -0.49389,0.14111 v -1.23472 q 0,-0.41628 -0.1905,-0.62794 -0.18345,-0.21873 -0.55034,-0.21873 h -1.651 v 1.53106 q 0,0.26811 -0.16933,0.40922 -0.16228,0.14111 -0.48684,0.14111 z m 2.26484,2.03905 q 0.38806,0 0.61383,-0.23989 0.23284,-0.23988 0.23284,-0.65616 0,-0.42334 -0.21873,-0.64911 -0.21872,-0.22578 -0.62794,-0.22578 h -1.60867 v 1.77094 z"
         style="font-family:K2D;-inkscape-font-specification:K2D;fill:#000000"
         id="path329" />
      <path
         d="m 244.18061,236.43903 q -0.21167,-0.0423 -0.33161,-0.17638 -0.11995,-0.14112 -0.11995,-0.33867 0,-0.13406 0.0635,-0.28222 l 1.68628,-4.05695 q 0.0847,-0.21167 0.32456,-0.21167 0.22578,0 0.3175,0.21167 l 1.68628,4.05695 q 0.0635,0.14816 0.0635,0.28222 0,0.1905 -0.11995,0.33161 -0.11994,0.14111 -0.33161,0.18344 l -0.60678,-1.47461 h -2.02494 z m 2.42711,-2.04611 -0.91017,-2.30717 -0.0564,0.0212 0.127,0.32456 -0.77611,1.96144 z"
         style="font-family:K2D;-inkscape-font-specification:K2D;fill:#000000"
         id="path331" />
      <path
         d="m 249.41584,232.02225 h -1.72156 q 0,-0.58561 0.55033,-0.58561 h 3.54895 q 0,0.58561 -0.55033,0.58561 h -1.16417 v 3.86645 q 0,0.26811 -0.16934,0.40922 -0.16933,0.14111 -0.49388,0.14111 z"
         style="font-family:K2D;-inkscape-font-specification:K2D;fill:#000000"
         id="path333" />
      <path
         d="m 252.67551,231.92348 q 0,-0.26106 0.16934,-0.40217 0.17638,-0.14817 0.49389,-0.14817 v 4.51556 q 0,0.26106 -0.17639,0.40922 -0.16934,0.14111 -0.48684,0.14111 z"
         style="font-family:K2D;-inkscape-font-specification:K2D;fill:#000000"
         id="path335" />
      <path
         d="m 254.46763,231.94464 q 0,-0.26811 0.16227,-0.41628 0.16934,-0.15522 0.46567,-0.15522 l 2.73756,4.16278 0.0494,-0.0423 -0.20462,-0.33867 v -3.78178 q 0.32456,0 0.48684,0.14111 0.16933,0.14111 0.16933,0.40923 v 3.99344 q 0,0.22578 -0.16228,0.37395 -0.15522,0.14816 -0.40216,0.14816 l -2.80106,-4.2545 -0.0494,0.0423 0.20461,0.33867 v 3.32317 q 0,0.26811 -0.16933,0.40922 -0.16228,0.14111 -0.48683,0.14111 z"
         style="font-family:K2D;-inkscape-font-specification:K2D;fill:#000000"
         id="path337" />
      <path
         d="m 261.26919,236.43903 q -0.59972,0 -1.06539,-0.21872 -0.46567,-0.22578 -0.72672,-0.62089 -0.26106,-0.40216 -0.26106,-0.91016 v -1.58045 q 0,-0.508 0.254,-0.90311 0.26106,-0.39511 0.71967,-0.61384 0.45861,-0.21872 1.05128,-0.21872 0.59266,0 1.05127,0.1905 0.45862,0.18345 0.71262,0.51506 0.26105,0.33161 0.26105,0.75494 0,0.21167 -0.14111,0.33161 -0.14111,0.11995 -0.37394,0.11995 -0.0494,0 -0.14817,-0.0141 0.0141,-0.0847 0.0141,-0.26811 0,-0.30339 -0.17639,-0.54328 -0.16933,-0.23989 -0.48683,-0.37395 -0.31045,-0.13405 -0.71261,-0.13405 -0.39512,0 -0.70556,0.14816 -0.31044,0.14112 -0.48683,0.40923 -0.16934,0.26105 -0.16934,0.59972 v 1.58045 q 0,0.33866 0.17639,0.60677 0.17639,0.26811 0.49389,0.41628 0.3175,0.14817 0.71967,0.14817 0.39511,0 0.70555,-0.13406 0.3175,-0.13405 0.48684,-0.381 0.17639,-0.24694 0.17639,-0.55739 v -0.39511 h -0.889 q -0.21873,0 -0.35278,-0.14817 -0.13406,-0.15522 -0.13406,-0.40216 h 1.72156 q 0.14111,0 0.22578,0.0847 0.0917,0.0847 0.0917,0.22578 v 0.64206 q 0,0.47978 -0.26106,0.85372 -0.254,0.37395 -0.71966,0.58561 -0.45861,0.20461 -1.05128,0.20461 z"
         style="font-family:K2D;-inkscape-font-specification:K2D;fill:#000000"
         id="path339" />
      <path
         d="m 267.76736,236.43903 q -0.59267,0 -1.03011,-0.16933 -0.43039,-0.16933 -0.65617,-0.45156 -0.22578,-0.28222 -0.22578,-0.60677 0,-0.26811 0.14111,-0.40923 0.14111,-0.14816 0.43039,-0.14816 0,0.59972 0.35984,0.91722 0.35983,0.31044 1.00894,0.31044 0.62089,0 0.9525,-0.20461 0.33161,-0.21166 0.33161,-0.62089 0,-0.24694 -0.127,-0.40216 -0.11994,-0.16228 -0.41628,-0.27517 -0.28927,-0.11994 -0.83961,-0.23989 -0.64911,-0.14111 -1.03011,-0.32455 -0.381,-0.1905 -0.55739,-0.45862 -0.17639,-0.26811 -0.17639,-0.66322 0,-0.39511 0.21872,-0.69144 0.22578,-0.30339 0.63501,-0.46567 0.40922,-0.16228 0.9525,-0.16228 0.51505,0 0.91722,0.14817 0.40922,0.14111 0.635,0.40922 0.23283,0.26106 0.23283,0.59267 0,0.20461 -0.13405,0.32455 -0.127,0.11289 -0.40217,0.11289 -0.0776,-0.53622 -0.381,-0.78316 -0.29633,-0.24695 -0.86783,-0.24695 -0.55034,0 -0.84667,0.19756 -0.29634,0.1905 -0.29634,0.54327 0,0.24695 0.10584,0.40923 0.11289,0.15522 0.37394,0.26811 0.26811,0.11289 0.74789,0.21872 0.71967,0.15522 1.12889,0.34572 0.41628,0.1905 0.59972,0.46567 0.18345,0.27517 0.18345,0.67733 0,0.64206 -0.53622,1.016 -0.53623,0.36689 -1.43228,0.36689 z"
         style="font-family:K2D;-inkscape-font-specification:K2D;fill:#000000"
         id="path341" />
      <path
         d="m 271.73963,234.58342 -1.75684,-3.12561 q 0.0494,-0.0353 0.14817,-0.0564 0.10584,-0.0282 0.19756,-0.0282 0.35983,0 0.51505,0.30339 l 1.2065,2.26484 -0.14816,0.29633 0.0494,0.0282 1.34055,-2.58939 q 0.16228,-0.30339 0.52211,-0.30339 0.0917,0 0.1905,0.0282 0.10584,0.0212 0.15523,0.0564 l -1.75684,3.12561 v 1.30528 q 0,0.26811 -0.16933,0.40922 -0.16933,0.14111 -0.49389,0.14111 z"
         style="font-family:K2D;-inkscape-font-specification:K2D;fill:#000000"
         id="path343" />
      <path
         d="m 276.3469,236.43903 q -0.59267,0 -1.03011,-0.16933 -0.43039,-0.16933 -0.65617,-0.45156 -0.22577,-0.28222 -0.22577,-0.60677 0,-0.26811 0.14111,-0.40923 0.14111,-0.14816 0.43039,-0.14816 0,0.59972 0.35983,0.91722 0.35983,0.31044 1.00894,0.31044 0.62089,0 0.9525,-0.20461 0.33162,-0.21166 0.33162,-0.62089 0,-0.24694 -0.127,-0.40216 -0.11995,-0.16228 -0.41628,-0.27517 -0.28928,-0.11994 -0.83961,-0.23989 -0.64912,-0.14111 -1.03012,-0.32455 -0.381,-0.1905 -0.55738,-0.45862 -0.17639,-0.26811 -0.17639,-0.66322 0,-0.39511 0.21872,-0.69144 0.22578,-0.30339 0.635,-0.46567 0.40922,-0.16228 0.9525,-0.16228 0.51506,0 0.91722,0.14817 0.40923,0.14111 0.635,0.40922 0.23284,0.26106 0.23284,0.59267 0,0.20461 -0.13406,0.32455 -0.127,0.11289 -0.40217,0.11289 -0.0776,-0.53622 -0.381,-0.78316 -0.29633,-0.24695 -0.86783,-0.24695 -0.55033,0 -0.84667,0.19756 -0.29633,0.1905 -0.29633,0.54327 0,0.24695 0.10583,0.40923 0.11289,0.15522 0.37395,0.26811 0.26811,0.11289 0.74789,0.21872 0.71966,0.15522 1.12889,0.34572 0.41627,0.1905 0.59972,0.46567 0.18344,0.27517 0.18344,0.67733 0,0.64206 -0.53622,1.016 -0.53622,0.36689 -1.43228,0.36689 z"
         style="font-family:K2D;-inkscape-font-specification:K2D;fill:#000000"
         id="path345" />
      <path
         d="m 280.2839,232.02225 h -1.72156 q 0,-0.58561 0.55034,-0.58561 h 3.54894 q 0,0.58561 -0.55033,0.58561 h -1.16417 v 3.86645 q 0,0.26811 -0.16933,0.40922 -0.16933,0.14111 -0.49389,0.14111 z"
         style="font-family:K2D;-inkscape-font-specification:K2D;fill:#000000"
         id="path347" />
      <path
         d="m 283.40246,231.74709 q 0,-0.13406 0.0988,-0.21873 0.0988,-0.0917 0.23989,-0.0917 h 3.12561 q 0,0.29634 -0.11994,0.43745 -0.11995,0.14111 -0.37395,0.14111 h -2.30716 v 1.58044 h 1.97555 q 0,0.29634 -0.11994,0.43745 -0.11995,0.14111 -0.36689,0.14111 h -1.48872 v 1.62278 h 2.45533 q 0.24694,0 0.36689,0.14111 0.11994,0.14111 0.11994,0.43744 h -3.26672 q -0.14111,0 -0.23989,-0.0847 -0.0988,-0.0917 -0.0988,-0.22578 z"
         style="font-family:K2D;-inkscape-font-specification:K2D;fill:#000000"
         id="path349" />
      <path
         d="m 287.81924,231.92348 q 0,-0.26106 0.17639,-0.40217 0.17639,-0.14817 0.48683,-0.14817 l 1.70745,4.09928 -0.13406,0.33161 0.0494,0.0212 1.80623,-4.45206 q 0.31044,0 0.48683,0.14817 0.18344,0.14817 0.18344,0.40922 v 4.5085 q -0.65616,0 -0.65616,-0.54327 v -2.97039 l 0.18344,-0.48684 -0.0564,-0.0141 -1.57339,3.82411 q -0.0353,0.0847 -0.11289,0.13406 -0.0776,0.0564 -0.16228,0.0564 -0.0917,0 -0.16933,-0.0494 -0.0776,-0.0494 -0.11289,-0.14112 l -1.57339,-3.83117 -0.0564,0.0212 0.18345,0.47978 v 2.97745 q 0,0.26811 -0.16934,0.40922 -0.16227,0.13405 -0.48683,0.13405 z"
         style="font-family:K2D;-inkscape-font-specification:K2D;fill:#000000"
         id="path351" />
      <path
         d="m 225.63859,245.52228 q -0.14111,0 -0.24694,-0.0988 -0.0988,-0.10583 -0.0988,-0.24694 v -4.10634 q 0,-0.55033 0.66322,-0.55033 v 4.41678 h 2.16606 q 0.24694,0 0.381,0.15522 0.13406,0.14817 0.13406,0.43039 z"
         style="font-family:K2D;-inkscape-font-specification:K2D;fill:#000000"
         id="path353" />
      <path
         d="m 229.47682,245.58578 q -0.21166,-0.0423 -0.33161,-0.17639 -0.11994,-0.14111 -0.11994,-0.33867 0,-0.13405 0.0635,-0.28222 l 1.68628,-4.05695 q 0.0847,-0.21166 0.32455,-0.21166 0.22578,0 0.3175,0.21166 l 1.68628,4.05695 q 0.0635,0.14817 0.0635,0.28222 0,0.1905 -0.11994,0.33161 -0.11995,0.14112 -0.33161,0.18345 l -0.60678,-1.47461 h -2.02495 z m 2.42712,-2.04611 -0.91017,-2.30717 -0.0565,0.0212 0.127,0.32455 -0.77611,1.96145 z"
         style="font-family:K2D;-inkscape-font-specification:K2D;fill:#000000"
         id="path355" />
      <path
         d="m 234.81789,243.73017 -1.75684,-3.12562 q 0.0494,-0.0353 0.14817,-0.0564 0.10583,-0.0282 0.19755,-0.0282 0.35984,0 0.51506,0.30339 l 1.2065,2.26483 -0.14817,0.29633 0.0494,0.0282 1.34056,-2.58939 q 0.16228,-0.30339 0.52211,-0.30339 0.0917,0 0.1905,0.0282 0.10583,0.0212 0.15522,0.0564 l -1.75683,3.12562 v 1.30528 q 0,0.26811 -0.16934,0.40922 -0.16933,0.14111 -0.49388,0.14111 z"
         style="font-family:K2D;-inkscape-font-specification:K2D;fill:#000000"
         id="path357" />
      <path
         d="m 238.04933,240.89383 q 0,-0.13405 0.0988,-0.21872 0.0988,-0.0917 0.23989,-0.0917 h 3.12562 q 0,0.29633 -0.11995,0.43744 -0.11994,0.14111 -0.37394,0.14111 h -2.30717 v 1.58045 h 1.97556 q 0,0.29633 -0.11995,0.43744 -0.11994,0.14111 -0.36689,0.14111 h -1.48872 v 1.62278 h 2.45533 q 0.24695,0 0.36689,0.14111 0.11995,0.14112 0.11995,0.43745 h -3.26673 q -0.14111,0 -0.23989,-0.0847 -0.0988,-0.0917 -0.0988,-0.22578 z"
         style="font-family:K2D;-inkscape-font-specification:K2D;fill:#000000"
         id="path359" />
      <path
         d="m 242.4661,240.89383 q 0,-0.13405 0.0917,-0.21872 0.0988,-0.0917 0.24694,-0.0917 h 1.94733 q 0.68439,0 1.08656,0.40216 0.40922,0.39512 0.40922,1.05834 0,0.83255 -0.72672,1.17828 v 0.0212 q 0.3175,0.13406 0.48683,0.40923 0.16934,0.26811 0.16934,0.65616 v 0.72673 q 0,0.26811 -0.16934,0.40922 -0.16933,0.14111 -0.49389,0.14111 v -1.23472 q 0,-0.41628 -0.1905,-0.62795 -0.18344,-0.21872 -0.55033,-0.21872 h -1.651 v 1.53106 q 0,0.26811 -0.16933,0.40922 -0.16228,0.14111 -0.48684,0.14111 z m 2.26484,2.03906 q 0.38805,0 0.61383,-0.23989 0.23283,-0.23989 0.23283,-0.65617 0,-0.42333 -0.21872,-0.64911 -0.21872,-0.22578 -0.62794,-0.22578 h -1.60867 v 1.77095 z"
         style="font-family:K2D;-inkscape-font-specification:K2D;fill:#000000"
         id="path361" />
    </g>
    <g
       aria-label="HARDWARE LAYER"
       id="text56317"
       style="font-size:7.05556px;line-height:1.25;fill:#ffffff;stroke-width:0.264583">
      <path
         d="m 225.29287,262.04458 q 0,-0.26811 0.16933,-0.40922 0.16934,-0.14111 0.49389,-0.14111 v 2.2225 h 2.50473 v -1.67217 q 0,-0.26811 0.16933,-0.40922 0.16933,-0.14111 0.49389,-0.14111 v 4.51556 q 0,0.26811 -0.16933,0.40922 -0.16934,0.14111 -0.49389,0.14111 v -2.25778 h -2.50473 v 1.70745 q 0,0.26811 -0.16933,0.40922 -0.16933,0.14111 -0.49389,0.14111 z"
         style="font-family:K2D;-inkscape-font-specification:K2D;fill:#000000"
         id="path296" />
      <path
         d="m 230.38699,266.56014 q -0.21167,-0.0423 -0.33161,-0.17639 -0.11995,-0.14111 -0.11995,-0.33866 0,-0.13406 0.0635,-0.28223 l 1.68628,-4.05694 q 0.0847,-0.21167 0.32456,-0.21167 0.22578,0 0.3175,0.21167 l 1.68628,4.05694 q 0.0635,0.14817 0.0635,0.28223 0,0.1905 -0.11995,0.33161 -0.11994,0.14111 -0.33161,0.18344 l -0.60678,-1.47461 h -2.02494 z m 2.42711,-2.04611 -0.91017,-2.30717 -0.0564,0.0212 0.127,0.32455 -0.77611,1.96145 z"
         style="font-family:K2D;-inkscape-font-specification:K2D;fill:#000000"
         id="path298" />
      <path
         d="m 234.88844,261.8682 q 0,-0.13406 0.0917,-0.21873 0.0988,-0.0917 0.24694,-0.0917 h 1.94734 q 0.68439,0 1.08655,0.40217 0.40923,0.39511 0.40923,1.05833 0,0.83256 -0.72673,1.17828 v 0.0212 q 0.3175,0.13405 0.48684,0.40922 0.16933,0.26811 0.16933,0.65617 v 0.72672 q 0,0.26811 -0.16933,0.40922 -0.16934,0.14111 -0.49389,0.14111 v -1.23472 q 0,-0.41628 -0.1905,-0.62794 -0.18345,-0.21873 -0.55034,-0.21873 h -1.651 v 1.53106 q 0,0.26811 -0.16933,0.40922 -0.16228,0.14111 -0.48683,0.14111 z m 2.26483,2.03905 q 0.38806,0 0.61383,-0.23989 0.23284,-0.23989 0.23284,-0.65616 0,-0.42334 -0.21872,-0.64912 -0.21873,-0.22577 -0.62795,-0.22577 h -1.60867 v 1.77094 z"
         style="font-family:K2D;-inkscape-font-specification:K2D;fill:#000000"
         id="path300" />
      <path
         d="m 239.92611,266.49664 q -0.14111,0 -0.23989,-0.0847 -0.0988,-0.0917 -0.0988,-0.22578 v -4.318 q 0,-0.13406 0.0917,-0.21873 0.0988,-0.0917 0.24695,-0.0917 h 1.651 q 0.59972,0 1.05833,0.22578 0.45862,0.22578 0.71262,0.635 0.26105,0.40217 0.26105,0.92428 v 1.35467 q 0,0.52211 -0.26105,0.93133 -0.254,0.40922 -0.71967,0.64206 -0.45861,0.22577 -1.05128,0.22577 z m 1.58044,-0.57855 q 0.67734,0 1.05834,-0.3175 0.381,-0.32456 0.381,-0.89606 v -1.36878 q 0,-0.56444 -0.381,-0.88194 -0.381,-0.3175 -1.05834,-0.3175 h -1.25589 v 3.78178 z"
         style="font-family:K2D;-inkscape-font-specification:K2D;fill:#000000"
         id="path302" />
      <path
         d="m 245.97273,266.56014 q -0.254,0 -0.41628,-0.11994 -0.16227,-0.127 -0.21872,-0.35278 l -1.16417,-4.52967 q 0.10584,-0.0635 0.26812,-0.0635 0.20461,0 0.34572,0.10583 0.14111,0.0988 0.18344,0.27517 l 0.76906,3.34434 -0.11289,0.41627 0.0423,0.0141 1.13595,-3.93701 q 0.0282,-0.10583 0.10583,-0.16227 0.0847,-0.0564 0.19756,-0.0564 0.10583,0 0.1905,0.0564 0.0847,0.0564 0.11289,0.16227 l 0.98072,3.53484 -0.0988,0.43039 0.0423,0.0141 0.91017,-3.81706 q 0.0423,-0.17639 0.17639,-0.27517 0.14111,-0.10583 0.33867,-0.10583 0.16228,0 0.28222,0.0635 l -1.16417,4.52967 q -0.0564,0.22578 -0.22578,0.35278 -0.16227,0.11994 -0.41627,0.11994 l -1.2065,-4.26861 -0.0423,0.0141 0.0917,0.33161 z"
         style="font-family:K2D;-inkscape-font-specification:K2D;fill:#000000"
         id="path304" />
      <path
         d="m 250.53064,266.56014 q -0.21167,-0.0423 -0.33161,-0.17639 -0.11995,-0.14111 -0.11995,-0.33866 0,-0.13406 0.0635,-0.28223 l 1.68628,-4.05694 q 0.0847,-0.21167 0.32456,-0.21167 0.22577,0 0.3175,0.21167 l 1.68628,4.05694 q 0.0635,0.14817 0.0635,0.28223 0,0.1905 -0.11995,0.33161 -0.11994,0.14111 -0.33161,0.18344 l -0.60678,-1.47461 h -2.02494 z m 2.42711,-2.04611 -0.91017,-2.30717 -0.0564,0.0212 0.127,0.32455 -0.77611,1.96145 z"
         style="font-family:K2D;-inkscape-font-specification:K2D;fill:#000000"
         id="path306" />
      <path
         d="m 255.03208,261.8682 q 0,-0.13406 0.0917,-0.21873 0.0988,-0.0917 0.24694,-0.0917 h 1.94734 q 0.68438,0 1.08655,0.40217 0.40922,0.39511 0.40922,1.05833 0,0.83256 -0.72672,1.17828 v 0.0212 q 0.3175,0.13405 0.48684,0.40922 0.16933,0.26811 0.16933,0.65617 v 0.72672 q 0,0.26811 -0.16933,0.40922 -0.16934,0.14111 -0.49389,0.14111 v -1.23472 q 0,-0.41628 -0.1905,-0.62794 -0.18345,-0.21873 -0.55034,-0.21873 h -1.651 v 1.53106 q 0,0.26811 -0.16933,0.40922 -0.16228,0.14111 -0.48684,0.14111 z m 2.26484,2.03905 q 0.38805,0 0.61383,-0.23989 0.23284,-0.23989 0.23284,-0.65616 0,-0.42334 -0.21873,-0.64912 -0.21872,-0.22577 -0.62794,-0.22577 h -1.60867 v 1.77094 z"
         style="font-family:K2D;-inkscape-font-specification:K2D;fill:#000000"
         id="path308" />
      <path
         d="m 259.73109,261.8682 q 0,-0.13406 0.0988,-0.21873 0.0988,-0.0917 0.23989,-0.0917 h 3.12561 q 0,0.29633 -0.11994,0.43745 -0.11995,0.14111 -0.37395,0.14111 h -2.30717 v 1.58044 h 1.97556 q 0,0.29634 -0.11994,0.43745 -0.11995,0.14111 -0.36689,0.14111 h -1.48873 v 1.62278 h 2.45534 q 0.24694,0 0.36689,0.14111 0.11994,0.14111 0.11994,0.43744 h -3.26672 q -0.14111,0 -0.23989,-0.0847 -0.0988,-0.0917 -0.0988,-0.22578 z"
         style="font-family:K2D;-inkscape-font-specification:K2D;fill:#000000"
         id="path310" />
      <path
         d="m 266.31392,266.49664 q -0.14111,0 -0.24694,-0.0988 -0.0988,-0.10584 -0.0988,-0.24695 v -4.10634 q 0,-0.55033 0.66322,-0.55033 v 4.41678 h 2.16606 q 0.24694,0 0.381,0.15522 0.13405,0.14817 0.13405,0.43039 z"
         style="font-family:K2D;-inkscape-font-specification:K2D;fill:#000000"
         id="path312" />
      <path
         d="m 270.15215,266.56014 q -0.21167,-0.0423 -0.33161,-0.17639 -0.11995,-0.14111 -0.11995,-0.33866 0,-0.13406 0.0635,-0.28223 l 1.68627,-4.05694 q 0.0847,-0.21167 0.32456,-0.21167 0.22578,0 0.3175,0.21167 l 1.68628,4.05694 q 0.0635,0.14817 0.0635,0.28223 0,0.1905 -0.11995,0.33161 -0.11994,0.14111 -0.33161,0.18344 l -0.60678,-1.47461 h -2.02494 z m 2.42711,-2.04611 -0.91016,-2.30717 -0.0565,0.0212 0.127,0.32455 -0.77611,1.96145 z"
         style="font-family:K2D;-inkscape-font-specification:K2D;fill:#000000"
         id="path314" />
      <path
         d="m 275.49321,264.70453 -1.75683,-3.12561 q 0.0494,-0.0353 0.14816,-0.0564 0.10584,-0.0282 0.19756,-0.0282 0.35983,0 0.51506,0.30339 l 1.2065,2.26483 -0.14817,0.29634 0.0494,0.0282 1.34055,-2.58939 q 0.16228,-0.30339 0.52212,-0.30339 0.0917,0 0.1905,0.0282 0.10583,0.0212 0.15522,0.0564 l -1.75684,3.12561 v 1.30528 q 0,0.26811 -0.16933,0.40922 -0.16933,0.14111 -0.49389,0.14111 z"
         style="font-family:K2D;-inkscape-font-specification:K2D;fill:#000000"
         id="path316" />
      <path
         d="m 278.72465,261.8682 q 0,-0.13406 0.0988,-0.21873 0.0988,-0.0917 0.23989,-0.0917 h 3.12561 q 0,0.29633 -0.11994,0.43745 -0.11995,0.14111 -0.37395,0.14111 h -2.30717 v 1.58044 h 1.97556 q 0,0.29634 -0.11994,0.43745 -0.11995,0.14111 -0.36689,0.14111 h -1.48873 v 1.62278 h 2.45534 q 0.24694,0 0.36689,0.14111 0.11994,0.14111 0.11994,0.43744 h -3.26672 q -0.14111,0 -0.23989,-0.0847 -0.0988,-0.0917 -0.0988,-0.22578 z"
         style="font-family:K2D;-inkscape-font-specification:K2D;fill:#000000"
         id="path318" />
      <path
         d="m 283.14143,261.8682 q 0,-0.13406 0.0917,-0.21873 0.0988,-0.0917 0.24695,-0.0917 h 1.94733 q 0.68439,0 1.08656,0.40217 0.40922,0.39511 0.40922,1.05833 0,0.83256 -0.72672,1.17828 v 0.0212 q 0.3175,0.13405 0.48683,0.40922 0.16933,0.26811 0.16933,0.65617 v 0.72672 q 0,0.26811 -0.16933,0.40922 -0.16933,0.14111 -0.49389,0.14111 v -1.23472 q 0,-0.41628 -0.1905,-0.62794 -0.18344,-0.21873 -0.55033,-0.21873 h -1.651 v 1.53106 q 0,0.26811 -0.16934,0.40922 -0.16227,0.14111 -0.48683,0.14111 z m 2.26484,2.03905 q 0.38805,0 0.61383,-0.23989 0.23283,-0.23989 0.23283,-0.65616 0,-0.42334 -0.21872,-0.64912 -0.21872,-0.22577 -0.62794,-0.22577 h -1.60867 v 1.77094 z"
         style="font-family:K2D;-inkscape-font-specification:K2D;fill:#000000"
         id="path320" />
    </g>
  </g>
</svg>
